<svg width="81" height="77" viewBox="0 0 81 77" fill="none" xmlns="http://www.w3.org/2000/svg">
<path d="M55.4145 9.23572H11.8746C11.1459 9.23572 10.5552 9.82643 10.5552 10.5551V13.1939C10.5552 13.9226 11.1459 14.5133 11.8746 14.5133H55.4145C56.1432 14.5133 56.7339 13.9226 56.7339 13.1939V10.5551C56.7339 9.82643 56.1432 9.23572 55.4145 9.23572Z" fill="#FF1616"/>
<path d="M15.8327 48.8175C18.0187 48.8175 19.7909 47.0453 19.7909 44.8593C19.7909 42.6733 18.0187 40.9011 15.8327 40.9011C13.6466 40.9011 11.8745 42.6733 11.8745 44.8593C11.8745 47.0453 13.6466 48.8175 15.8327 48.8175Z" fill="#FF1616"/>
<path d="M46.073 67.289C49.3521 67.289 52.0103 64.6307 52.0103 61.3517C52.0103 58.0726 49.3521 55.4144 46.073 55.4144C42.7939 55.4144 40.1357 58.0726 40.1357 61.3517C40.1357 64.6307 42.7939 67.289 46.073 67.289Z" fill="#FF1616"/>
<path d="M49.2957 45.2222C49.3452 45.2933 49.4082 45.354 49.4811 45.4008C49.554 45.4475 49.6354 45.4795 49.7207 45.4948C49.806 45.5101 49.8934 45.5085 49.9781 45.49C50.0627 45.4715 50.1429 45.4366 50.214 45.3871L52.6425 43.6971C52.9155 43.5084 53.1482 43.2674 53.3273 42.9881C53.5065 42.7088 53.6284 42.3967 53.686 42.07C53.7535 41.6939 53.7107 41.3064 53.5628 40.9541C53.4148 40.6019 53.1681 40.3 52.8524 40.0849C52.5366 39.8697 52.1654 39.7506 51.7834 39.7418C51.4015 39.7331 51.0252 39.8351 50.6999 40.0355C50.4646 39.7345 50.1472 39.5081 49.786 39.3835C49.4248 39.259 49.0353 39.2416 48.6645 39.3336C48.2937 39.4255 47.9574 39.6228 47.6962 39.9017C47.4351 40.1806 47.2602 40.5291 47.1928 40.9051C47.1333 41.2315 47.1391 41.5665 47.2099 41.8906C47.2806 42.2147 47.415 42.5216 47.6051 42.7935L49.2957 45.2222Z" fill="#FF1616"/>
<path d="M58.2242 42.3307C58.0741 42.6096 57.9932 42.9204 57.9883 43.237C57.9833 43.5536 58.0545 43.8668 58.1957 44.1502C58.337 44.4336 58.5443 44.679 58.8001 44.8656C59.0559 45.0523 59.3528 45.1748 59.6658 45.2228L58.9876 46.4853C58.9456 46.5617 58.9192 46.6456 58.9098 46.7323C58.9005 46.819 58.9084 46.9066 58.9331 46.9902C58.9578 47.0738 58.9989 47.1517 59.0539 47.2193C59.1089 47.2869 59.1767 47.343 59.2535 47.3843C59.3303 47.4255 59.4145 47.4511 59.5013 47.4597C59.588 47.4682 59.6756 47.4594 59.7589 47.4339C59.8423 47.4084 59.9197 47.3666 59.9868 47.3109C60.0539 47.2553 60.1093 47.1869 60.1499 47.1097L60.8282 45.8469C61.0411 46.0811 61.3071 46.2608 61.6039 46.3709C61.9006 46.481 62.2194 46.5184 62.5336 46.4798C62.8478 46.4412 63.1481 46.3279 63.4094 46.1493C63.6707 45.9706 63.8853 45.7319 64.0353 45.4532C64.1932 45.1613 64.2916 44.841 64.3249 44.5109C64.3582 44.1807 64.3256 43.8472 64.2291 43.5297L63.3761 40.6963C63.3257 40.5288 63.2107 40.3882 63.0566 40.3054C62.9025 40.2226 62.7218 40.2044 62.5543 40.2548L59.7209 41.1076C59.4029 41.2024 59.1069 41.3593 58.85 41.5692C58.5931 41.7792 58.3804 42.038 58.2242 42.3307Z" fill="#FF1616"/>
<path d="M1.32055 36.2422L0.00230892 52.0612C0.00082461 52.0793 0 52.0977 0 52.116V63.0009C0.000480192 63.4382 0.174393 63.8574 0.483581 64.1666C0.79277 64.4758 1.21198 64.6497 1.64924 64.6502H33.9824C34.4452 66.3514 35.262 67.9357 36.3793 69.2995C37.4966 70.6632 38.8893 71.7757 40.4662 72.5641C42.0432 73.3525 43.7688 73.799 45.5302 73.8745C47.2916 73.9499 49.0491 73.6526 50.6877 73.0019C52.1579 73.5879 53.7263 73.8879 55.3089 73.8859C55.8123 73.8849 56.3153 73.8536 56.815 73.7922L62.2322 76.6862C62.8488 77.0171 63.5715 77.0897 64.2416 76.888C64.9116 76.6863 65.4742 76.2268 65.8056 75.6105L80.1682 48.8785C80.3323 48.5732 80.4346 48.2386 80.4694 47.8938C80.5041 47.5489 80.4706 47.2006 80.3707 46.8687C80.2708 46.5369 80.1065 46.2279 79.8872 45.9595C79.6679 45.6912 79.3979 45.4686 79.0926 45.3046L66.1439 38.3475L65.9684 36.2417L65.8327 32.9848H70.9173C71.3545 32.9843 71.7738 32.8104 72.0829 32.5012C72.3921 32.192 72.566 31.7728 72.5665 31.3355V30.346H73.5561C73.9933 30.3455 74.4125 30.1716 74.7217 29.8624C75.0309 29.5532 75.2048 29.134 75.2053 28.6968V25.3983C75.2048 24.961 75.0309 24.5418 74.7217 24.2326C74.4125 23.9234 73.9933 23.7495 73.5561 23.749H72.5665V22.7595C72.566 22.3222 72.3921 21.903 72.0829 21.5938C71.7738 21.2847 71.3545 21.1107 70.9173 21.1103H69.9277V9.14883C70.5496 8.98826 71.0916 8.6064 71.452 8.07484C71.8125 7.54327 71.9667 6.89848 71.8858 6.26134C71.8049 5.62419 71.4943 5.03844 71.0124 4.61387C70.5305 4.18929 69.9103 3.95505 69.268 3.95505C68.6258 3.95505 68.0056 4.18929 67.5237 4.61387C67.0417 5.03844 66.7312 5.62419 66.6503 6.26134C66.5694 6.89848 66.7236 7.54327 67.0841 8.07484C67.4445 8.6064 67.9865 8.98826 68.6084 9.14883V21.1103H65.3379L64.6502 4.59033C64.6468 4.5289 64.6347 4.46827 64.6142 4.41023L64.617 4.40924L63.748 1.80427C63.5734 1.27858 63.2375 0.821305 62.7881 0.49741C62.3387 0.173515 61.7986 -0.000530121 61.2447 1.21295e-06H6.0443C5.49034 -0.000530121 4.95031 0.173515 4.50091 0.49741C4.05151 0.821305 3.71561 1.27858 3.54092 1.80427L2.67259 4.40924L2.6754 4.41023C2.65475 4.46823 2.64242 4.52887 2.63878 4.59033L1.32055 36.2422ZM72.5665 25.0684H73.5561C73.6435 25.0684 73.7274 25.1032 73.7893 25.165C73.8512 25.2269 73.8859 25.3108 73.8859 25.3983V28.6968C73.8859 28.7842 73.8512 28.8681 73.7893 28.93C73.7274 28.9919 73.6435 29.0266 73.5561 29.0266H72.5665V25.0684ZM33.6966 59.3726H21.2752C21.2314 59.3726 21.1895 59.3552 21.1586 59.3243C21.1276 59.2934 21.1103 59.2514 21.1103 59.2077V55.5794C21.1103 55.5356 21.1276 55.4937 21.1586 55.4627C21.1895 55.4318 21.2314 55.4144 21.2752 55.4144H35.0373C34.3703 56.6488 33.9171 57.9871 33.6966 59.3726ZM35.4671 64.9889C35.1361 64.0279 34.9383 63.0261 34.8793 62.0114H37.525C37.5757 62.6825 37.7058 63.3453 37.9125 63.9859L35.4671 64.9889ZM35.9864 56.4535C36.4372 55.5303 37.0123 54.6733 37.6957 53.9062L39.5652 55.7761C39.1215 56.2933 38.7407 56.8614 38.4309 57.4684L35.9864 56.4535ZM41.1756 71.4378C40.2526 70.9873 39.3955 70.4127 38.6283 69.7298L40.4977 67.8606C41.0148 68.3043 41.5828 68.685 42.1897 68.9948L41.1756 71.4378ZM46.7335 72.5449V69.8999C47.4047 69.8491 48.0676 69.7189 48.7081 69.5121L49.7112 71.9578C48.7498 72.2887 47.7477 72.4865 46.7327 72.5456L46.7335 72.5449ZM46.0738 68.6077C44.6386 68.6077 43.2356 68.1821 42.0422 67.3847C40.8489 66.5874 39.9188 65.454 39.3695 64.128C38.8203 62.8021 38.6766 61.343 38.9566 59.9353C39.2366 58.5277 39.9277 57.2347 40.9426 56.2198C41.9574 55.2049 43.2505 54.5138 44.6581 54.2338C46.0658 53.9538 47.5248 54.0975 48.8508 54.6468C50.1768 55.196 51.3101 56.1261 52.1075 57.3195C52.9049 58.5128 53.3305 59.9158 53.3305 61.351C53.3285 63.2752 52.5632 65.12 51.2026 66.4806C49.842 67.8412 47.9972 68.6064 46.073 68.6084L46.0738 68.6077ZM54.7547 15.8327H12.5342C12.0095 15.8333 11.5064 16.042 11.1354 16.413C10.7644 16.784 10.5557 17.2871 10.5551 17.8118V34.9639C10.5557 35.4886 10.7644 35.9916 11.1354 36.3627C11.5064 36.7337 12.0095 36.9424 12.5342 36.943H45.453C45.2461 37.2469 45.1057 37.5911 45.0407 37.953L44.9856 38.2623H5.14216L5.2487 37.0139C5.2487 37.0043 5.25019 36.9947 5.25052 36.9853L6.46287 7.91635H60.8261L62.0025 36.123L61.6588 35.9382C61.0424 35.6073 60.3197 35.5347 59.6498 35.7364C58.9798 35.9381 58.4174 36.3976 58.0862 37.0139L57.793 37.5598L54.3538 36.943H54.7547C55.2795 36.9424 55.7825 36.7337 56.1535 36.3627C56.5246 35.9916 56.7333 35.4886 56.7338 34.9639V17.8118C56.7333 17.2871 56.5246 16.784 56.1535 16.413C55.7825 16.042 55.2795 15.8333 54.7547 15.8327ZM52.7757 19.7909V32.9848H40.9011V19.7909H52.7757ZM39.5817 19.7909V32.9848H27.7072V19.7909H39.5817ZM26.3878 19.7909V32.9848H14.5133V19.7909H26.3878ZM46.34 38.1858C46.4019 37.8415 46.598 37.5359 46.8852 37.3361C47.1724 37.1364 47.5271 37.0588 47.8715 37.1206L57.1351 38.7825L51.4093 49.4394C51.1665 49.519 50.926 49.6064 50.6877 49.7015C48.6975 48.9073 46.5356 48.6419 44.4124 48.9309L46.34 38.1858ZM53.5178 52.9736L51.6486 54.843C51.1314 54.3992 50.5634 54.0184 49.9564 53.7086L50.9707 51.2645C51.8937 51.7153 52.7507 52.2903 53.5178 52.9736ZM45.4133 50.1573V52.803C44.7422 52.8538 44.0794 52.9839 43.439 53.1908L42.4357 50.7451C43.3968 50.4144 44.3986 50.2168 45.4133 50.1578V50.1573ZM54.649 72.5453C53.8815 72.5013 53.1205 72.3779 52.3784 72.1771C53.1967 71.6986 53.9584 71.1291 54.649 70.4797V72.5453ZM54.4511 68.7959L52.5819 66.9266C53.0256 66.4094 53.4064 65.8414 53.7162 65.2345L56.1604 66.2488C55.7095 67.1721 55.1342 68.0293 54.4506 68.7964L54.4511 68.7959ZM54.2339 58.717L56.6796 57.714C57.0103 58.6752 57.2079 59.6772 57.2669 60.692H54.6212C54.5704 60.0208 54.4403 59.358 54.2334 58.7175L54.2339 58.717ZM56.3364 68.5338C56.6901 68.0303 57.0062 67.5014 57.2822 66.9514C58.4415 66.5431 59.4455 65.7852 60.1557 64.7821C60.8659 63.779 61.2473 62.5803 61.2473 61.3512C61.2473 60.1222 60.8659 58.9234 60.1557 57.9203C59.4455 56.9172 58.4415 56.1593 57.2822 55.751C57.0062 55.201 56.6901 54.6721 56.3364 54.1686C58.0651 54.4158 59.6467 55.2782 60.7908 56.5976C61.9349 57.917 62.5648 59.6047 62.5648 61.351C62.5648 63.0974 61.9349 64.7851 60.7908 66.1045C59.6467 67.4238 58.0651 68.2863 56.3364 68.5335V68.5338ZM55.9689 52.803V50.1578C56.9983 50.2177 58.0145 50.4203 58.9882 50.7598L57.9749 53.2018C57.3245 52.9889 56.6508 52.8552 55.9684 52.8035L55.9689 52.803ZM62.9671 57.4971C62.6546 56.8791 62.2686 56.3011 61.8176 55.7756L63.6869 53.9064C64.3802 54.6842 64.9623 55.5546 65.4162 56.4925L62.9671 57.4971ZM66.5028 62.0114C66.4428 63.0408 66.2402 64.0568 65.9008 65.0305L63.4588 64.017C63.6717 63.3669 63.8054 62.6935 63.8571 62.0114H66.5028ZM62.7536 69.7298C61.9757 70.4231 61.1054 71.0051 60.1675 71.4591L59.163 69.0098C59.7809 68.6974 60.3589 68.3115 60.8843 67.8606L62.7536 69.7298ZM78.4682 46.4673C78.7761 46.6332 79.0057 46.9145 79.1066 47.2495C79.2074 47.5845 79.1712 47.9458 79.006 48.2541L64.6434 74.986C64.4773 75.2941 64.1957 75.5238 63.8604 75.6245C63.5251 75.7252 63.1636 75.6887 62.8551 75.5231L58.8376 73.3768C61.913 72.4766 64.5267 70.4325 66.1415 67.6647C67.7563 64.8969 68.2496 61.6156 67.5199 58.4954C66.7901 55.3751 64.8929 52.653 62.2181 50.8884C59.5433 49.1238 56.2941 48.4508 53.1385 49.0078L59.2471 37.6383C59.4127 37.3301 59.694 37.1002 60.029 36.9994C60.3641 36.8985 60.7255 36.9349 61.0337 37.1005L78.4682 46.4673ZM4.79269 2.22169C4.87997 1.95881 5.04789 1.73012 5.27258 1.56814C5.49727 1.40616 5.7673 1.31912 6.0443 1.31939H61.2443C61.5213 1.31911 61.7913 1.40612 62.016 1.56807C62.2407 1.73003 62.4086 1.95867 62.4959 2.22153L63.0752 3.95818H4.21381L4.79269 2.22169ZM5.03018 39.5817H44.749L44.5123 40.9011H22.4297C22.0798 40.9015 21.7445 41.0407 21.4971 41.288C21.2498 41.5354 21.1107 41.8707 21.1103 42.2205V43.5399C21.1107 43.8897 21.2498 44.2251 21.4971 44.4724C21.7445 44.7198 22.0798 44.8589 22.4297 44.8593H43.8021L43.5655 46.1787H22.4297C22.0798 46.1791 21.7445 46.3182 21.4971 46.5656C21.2498 46.8129 21.1107 47.1483 21.1103 47.4981V48.8175C21.1107 49.1673 21.2498 49.5027 21.4971 49.75C21.7445 49.9973 22.0798 50.1365 22.4297 50.1369H40.4849C39.746 50.5068 39.0455 50.9488 38.3935 51.4563H4.01672L5.03018 39.5817Z" fill="#FF1616"/>
</svg>
