<svg width="79" height="79" viewBox="0 0 79 79" fill="none" xmlns="http://www.w3.org/2000/svg">
<path d="M75.1503 24.121C71.4415 15.1612 64.5326 7.9013 55.7674 3.75353C47.0022 -0.394241 37.0075 -1.1333 27.7275 1.68012C18.4476 4.49354 10.5459 10.6583 5.55964 18.9751C0.573358 27.2919 -1.14102 37.1662 0.750004 46.6771C2.64103 56.1879 8.00223 64.6554 15.7907 70.4322C23.5792 76.2091 33.2381 78.8823 42.8885 77.9319C52.5388 76.9814 61.4906 72.4753 68.0025 65.29C74.5144 58.1047 78.1207 48.7541 78.12 39.0571C78.1184 33.9319 77.1093 28.857 75.1503 24.121ZM66.7985 12.6801C73.5074 19.725 77.2723 29.0662 77.3238 38.7943L60.9228 38.9058C60.9084 36.1511 60.3679 33.4244 59.3305 30.8725C58.2952 28.3206 56.788 25.9869 54.8878 23.9936L66.7985 12.6801ZM59.9754 39.686C59.8957 42.2069 59.3561 44.6919 58.383 47.0187L55.1984 45.713C56.0004 43.7683 56.4402 41.6934 56.4961 39.5905L59.9754 39.686ZM55.0312 31.8916C54.1714 29.9697 52.9711 28.2191 51.4882 26.7244L53.9165 24.3359C55.6895 26.123 57.1245 28.2162 58.1521 30.5142L55.0312 31.8916ZM39.6333 0.76144C44.6321 0.909679 49.5617 1.97007 54.1793 3.89038C58.6103 5.79104 62.641 8.51421 66.0581 11.9157L54.4977 23.5557C52.5448 21.6107 50.2402 20.0545 47.7064 18.9698C45.0756 17.8749 42.2667 17.2705 39.4183 17.1864L39.6333 0.76144ZM39.2671 18.1736C41.7859 18.1892 44.2811 18.6613 46.6316 19.5669L45.3975 22.7516C43.4336 21.9929 41.3485 21.5964 39.2432 21.5812L39.2671 18.1736ZM24.0364 3.89038C28.6448 1.9961 33.5615 0.962583 38.5425 0.841056L38.9088 17.2421C36.0253 17.3204 33.1797 17.9192 30.5092 19.0096C27.9754 20.0943 25.6708 21.6505 23.7179 23.5955L12.1576 11.9157C15.5746 8.51421 19.6053 5.79104 24.0364 3.89038ZM32.0936 23.07C30.1631 23.9131 28.4036 25.1031 26.9026 26.5811L24.5141 24.1289C26.3098 22.3698 28.4117 20.9533 30.7162 19.9491L32.0936 23.07ZM3.63858 24.7261C5.45054 20.2571 8.08957 16.1703 11.4171 12.6801L23.2959 23.9936C21.3958 25.9869 19.8886 28.3206 18.8533 30.8725C17.8159 33.4244 17.2754 36.1511 17.261 38.9058L0.891809 38.7943C0.907845 33.9732 1.83997 29.1991 3.63858 24.7261ZM18.2323 38.7466C18.2645 36.2293 18.7555 33.739 19.6813 31.3979L22.866 32.6559C22.0909 34.6137 21.6808 36.6968 21.6558 38.8023L18.2323 38.7466ZM23.0651 45.9519C23.8971 47.8859 25.0732 49.6529 26.5363 51.1668L24.0682 53.5553C22.3204 51.7448 20.9151 49.6327 19.9202 47.3213L23.0651 45.9519ZM3.83763 53.8817C1.97613 49.4343 0.976468 44.6738 0.891809 39.8532L17.2928 39.5188C17.342 42.2716 17.9148 44.9898 18.9807 47.5283C20.0483 50.063 21.5823 52.3748 23.5029 54.3435L11.7834 65.8162C8.40796 62.373 5.71226 58.3241 3.83763 53.8817ZM38.5824 77.2731C28.8528 77.1588 19.5354 73.3276 12.5397 66.5646L23.9329 54.7654C27.9175 58.6455 33.2439 60.8411 38.8053 60.8959L38.5824 77.2731ZM31.2974 58.4278L32.5793 55.2431C33.5528 55.6382 34.5601 55.9447 35.5888 56.1587C36.6195 56.3654 37.6666 56.48 38.7177 56.5011L38.646 59.9246C36.1274 59.8788 33.6389 59.3687 31.3054 58.4198L31.2974 58.4278ZM38.7257 55.8403C36.7013 55.8045 34.701 55.3942 32.8261 54.6301L32.5952 54.5346L32.3643 54.4311C31.4386 54.026 30.5513 53.5383 29.7131 52.9741C28.8775 52.4051 28.0942 51.763 27.3723 51.0553C27.2449 50.9438 27.1335 50.8165 27.014 50.697C25.6076 49.2408 24.4772 47.5413 23.6781 45.6812C23.6065 45.5299 23.5507 45.3707 23.487 45.2114C22.7417 43.3299 22.3477 41.3276 22.3246 39.3039V38.8023C22.3477 36.7786 22.7417 34.7763 23.487 32.8947C23.5507 32.7355 23.6065 32.5763 23.6781 32.425C24.4772 30.5649 25.6076 28.8653 27.014 27.4091C27.1255 27.2897 27.2449 27.1623 27.3723 27.0509C28.0942 26.3432 28.8775 25.7011 29.7131 25.1321C30.5513 24.5678 31.4386 24.0802 32.3643 23.6751L32.5952 23.5716L32.8261 23.4761C34.701 22.712 36.7013 22.3017 38.7257 22.2659C38.8929 22.2659 39.0601 22.2659 39.2352 22.2659C41.2586 22.2801 43.2628 22.6604 45.1507 23.3885L45.6205 23.5716C47.4847 24.3624 49.1917 25.4815 50.6602 26.8757L51.0264 27.226C52.4527 28.663 53.6071 30.3461 54.434 32.1941C54.4977 32.3454 54.5773 32.4967 54.6331 32.6559C56.3116 36.7473 56.3116 41.335 54.6331 45.4264C54.5773 45.5856 54.4977 45.7369 54.434 45.8882C53.6168 47.7428 52.4704 49.4341 51.0503 50.8801L50.6841 51.2305C49.2156 52.6247 47.5085 53.7438 45.6444 54.5346L45.1746 54.7177C43.2867 55.4457 41.2825 55.8261 39.2591 55.8403C39.068 55.8482 38.9008 55.8323 38.7257 55.8323V55.8403ZM53.4388 54.1842C51.6135 55.9184 49.4911 57.31 47.173 58.2925L45.8434 55.1078C47.7811 54.2871 49.5556 53.1247 51.0822 51.6763L53.4388 54.1842ZM53.6538 74.4069C49.2056 76.247 44.4467 77.2199 39.6333 77.2731L39.4104 60.872C44.9699 60.8082 50.2931 58.6139 54.2828 54.7416L65.6759 66.5646C62.2091 69.915 58.1411 72.581 53.6856 74.4228L53.6538 74.4069ZM74.3541 53.8658C72.4756 58.3123 69.7744 62.3641 66.3925 65.8083L54.7127 54.3435C56.6419 52.3768 58.184 50.0649 59.2588 47.5283C60.3247 44.9898 60.8975 42.2716 60.9467 39.5188L77.3238 39.8532C77.239 44.6737 76.2393 49.4342 74.378 53.8817L74.3541 53.8658Z" fill="#97173A"/>
<path d="M48.5265 16.1035C48.7255 16.1752 48.9166 16.2628 49.1077 16.3503L49.6809 16.6131H49.7287C49.7429 16.6103 49.7563 16.6041 49.7675 16.5949C49.7787 16.5857 49.7875 16.5738 49.793 16.5604C49.7986 16.547 49.8007 16.5324 49.7992 16.518C49.7976 16.5035 49.7926 16.4897 49.7844 16.4777C49.7061 16.3624 49.6343 16.2428 49.5694 16.1194C49.437 15.8688 49.3405 15.6008 49.2828 15.3233C49.2828 15.3233 49.2828 15.2437 49.2828 15.2118C49.2541 14.9602 49.2897 14.7055 49.3863 14.4714L49.45 14.3201C49.4564 14.4222 49.4724 14.5235 49.4978 14.6226C49.5806 14.9114 49.7435 15.1709 49.9675 15.371C50.0839 15.4759 50.2121 15.5668 50.3497 15.6417C50.4886 15.727 50.6352 15.799 50.7876 15.8567C50.9552 15.9205 51.1285 15.9685 51.3051 16H51.5121H51.8305C52.3877 16.0365 52.9429 15.9032 53.4229 15.6179C53.5186 15.5593 53.6091 15.4927 53.6936 15.4188L53.8448 15.2675C53.9282 15.1766 54.0029 15.0779 54.0678 14.973L54.1155 14.8933L54.2031 14.7341C54.5284 14.2307 54.705 13.6456 54.7127 13.0462C54.7225 12.2354 54.5988 11.4284 54.3464 10.6577C54.1621 10.0998 53.9413 9.55461 53.6856 9.0256C53.6378 8.91413 53.5821 8.81859 53.5264 8.71509L53.4388 8.65936C53.1152 8.05233 52.748 7.4696 52.3401 6.91575C52.3262 6.89791 52.3078 6.88408 52.2869 6.87569C52.2659 6.86729 52.243 6.86463 52.2207 6.86798H52.1411L51.4245 7.00333C51.0453 7.08149 50.6706 7.17982 50.3019 7.29791L49.9675 7.40938C49.3924 7.59483 48.8333 7.82647 48.2956 8.10204L48.001 8.26128C47.7781 8.38866 47.5631 8.51605 47.3561 8.6514C47.1578 8.78488 46.9665 8.92838 46.7828 9.08133C46.6024 9.2431 46.4323 9.41594 46.2733 9.59884C45.8329 10.0333 45.5286 10.5866 45.3975 11.1912C45.3975 11.2787 45.3497 11.3663 45.3259 11.4539C45.302 11.5415 45.3259 11.5494 45.3259 11.5972C45.3074 11.7533 45.3074 11.9109 45.3259 12.067C45.3356 12.1771 45.3543 12.2863 45.3816 12.3934C45.45 12.6575 45.5631 12.9079 45.716 13.1338C45.8669 13.3649 46.0461 13.5762 46.2494 13.7628L46.4962 13.9698C46.5906 14.0392 46.689 14.103 46.7908 14.1609C46.929 14.2446 47.0726 14.3191 47.2207 14.3838C47.5045 14.5073 47.811 14.5697 48.1204 14.5669C48.4016 14.5701 48.6779 14.4928 48.9166 14.344L49.1077 14.2007L49.044 14.3599L48.9803 14.5032C48.8873 14.6782 48.7568 14.8304 48.5981 14.9491C48.485 15.0308 48.3652 15.1027 48.2398 15.164L48.1124 15.2198C47.9798 15.2772 47.8443 15.3277 47.7064 15.371L47.3561 15.4666C47.3408 15.4736 47.3279 15.4848 47.3189 15.4989C47.3098 15.513 47.305 15.5294 47.305 15.5462C47.305 15.563 47.3098 15.5794 47.3189 15.5935C47.3279 15.6076 47.3408 15.6188 47.3561 15.6258L47.6586 15.7293L47.9532 15.8487L48.5265 16.1035Z" fill="#97173A"/>
<path d="M62.9371 29.7897H63.2795C63.5846 29.8155 63.8877 29.8607 64.1871 29.925C64.4567 29.9865 64.7226 30.0636 64.9833 30.1559L65.2938 30.2753C65.598 30.3948 65.8933 30.5358 66.1775 30.6973C66.4142 30.8382 66.6428 30.9924 66.8622 31.1591L67.1329 31.374C67.3066 31.515 67.4715 31.6666 67.6265 31.8278C67.7619 31.9712 67.8733 32.0985 67.9609 32.21C68.0547 32.3248 68.1424 32.4444 68.2237 32.5683C68.2537 32.3537 68.2962 32.141 68.3511 31.9314C68.3511 31.8278 68.4068 31.7084 68.4466 31.581C68.6032 30.9738 68.8082 30.3801 69.0596 29.8056L69.195 29.4871C69.4467 28.9158 69.7422 28.3649 70.0787 27.8391L70.2698 27.5445C70.5784 27.0686 70.9216 26.6162 71.2969 26.191C71.4667 25.9999 71.6472 25.8088 71.8383 25.6177H71.4481C71.1615 25.6177 70.8829 25.6177 70.6042 25.562C70.3255 25.5063 69.8717 25.4744 69.5373 25.4028L69.187 25.3311C68.8606 25.2595 68.5421 25.1719 68.2475 25.0843C67.953 24.9967 67.6584 24.9012 67.3877 24.8057L67.0613 24.6783C66.7189 24.5429 66.4164 24.3917 66.1297 24.2643C65.8431 24.1369 65.5884 23.9936 65.3336 23.8741L65.0231 23.691L64.7285 23.4999L64.5056 23.3566L64.3224 23.2292C64.3545 23.3791 64.3784 23.5306 64.3941 23.6831C64.4297 24.091 64.4297 24.5012 64.3941 24.9092C64.3941 25.0206 64.3941 25.1321 64.3941 25.2436C64.3007 25.8246 64.1349 26.3916 63.9005 26.9314L63.7651 27.226C63.4906 27.7576 63.1538 28.2547 62.762 28.7069L62.539 28.9616C62.2327 29.2909 61.8998 29.5945 61.5438 29.8693C62.0054 29.8057 62.4713 29.7791 62.9371 29.7897Z" fill="#97173A"/>
<path d="M62.1966 49.9327C62.1966 50.0362 62.2524 50.1476 62.2842 50.2591C62.3957 50.7607 62.5629 51.3658 62.754 52.0107L62.8495 52.3371C62.9371 52.6237 63.0326 52.9183 63.1361 53.2208L63.3033 53.6667C63.359 53.818 63.4148 53.9613 63.4785 54.1046L63.6218 54.431C63.8972 55.0568 64.2708 55.6347 64.7285 56.1428C64.8292 56.2492 64.9355 56.3501 65.0469 56.4453L65.1504 56.5329C65.2668 56.6282 65.3891 56.7159 65.5167 56.7956L65.7396 56.9389C66.0083 57.1111 66.3095 57.2261 66.6245 57.2767C66.9396 57.3274 67.2617 57.3127 67.5708 57.2335C67.6981 57.2024 67.8231 57.1624 67.945 57.1141C68.133 57.0398 68.3141 56.9492 68.4864 56.8434C68.6578 56.7286 68.8202 56.6009 68.972 56.4612C69.2816 56.1763 69.5496 55.8494 69.7682 55.4899C69.8765 55.3082 69.9723 55.1194 70.0548 54.9246C70.1026 54.8052 70.1504 54.6778 70.1902 54.5584C70.241 54.4021 70.281 54.2425 70.3096 54.0807C70.3914 53.727 70.3738 53.3575 70.2585 53.0132C70.1433 52.6689 69.935 52.3633 69.6567 52.1301C69.9655 52.1719 70.2799 52.1338 70.5698 52.0195C70.8597 51.9052 71.1155 51.7185 71.3128 51.4772C71.4194 51.365 71.5178 51.2453 71.6073 51.1189L71.679 51.0075C71.808 50.7978 71.9173 50.5766 72.0054 50.3467C72.0862 50.1391 72.1527 49.9263 72.2045 49.7097C72.2045 49.6036 72.2257 49.4948 72.2682 49.3833C72.2682 49.2718 72.2682 49.1604 72.2682 49.0489C72.2945 48.6123 72.2515 48.1743 72.1408 47.7512C72.0318 47.3425 71.8226 46.9676 71.532 46.6603C71.2414 46.353 70.8787 46.1232 70.4768 45.9916H70.3733C70.2712 45.964 70.1675 45.9427 70.0628 45.9279H69.9991C69.777 45.8747 69.5504 45.8428 69.3223 45.8324H68.9641C68.2845 45.8597 67.6132 45.9913 66.9736 46.2225L66.6313 46.3499C66.0506 46.5812 65.4843 46.847 64.9355 47.1461L64.625 47.3053L63.789 47.7273L63.4068 47.9422L63.0485 48.1413L62.754 48.3085C62.3161 48.5553 62.0215 48.7384 61.8782 48.8021L62.1966 49.9327Z" fill="#97173A"/>
<path d="M53.4947 62.5441C53.0621 62.2768 52.5621 62.1386 52.0536 62.146C51.9344 62.1366 51.8146 62.1366 51.6954 62.146C51.5743 62.1649 51.4547 62.1915 51.3371 62.2256C51.2107 62.2649 51.0881 62.3155 50.9708 62.3769C50.472 62.6386 50.0743 63.0587 49.8403 63.5712C49.7935 63.6746 49.7536 63.781 49.7209 63.8896C49.6755 64.0355 49.6409 64.1845 49.6174 64.3355L49.4581 64.0409C49.4225 63.9556 49.3933 63.8678 49.3705 63.7782C49.3369 63.6507 49.3182 63.5198 49.3148 63.3881C49.307 63.2927 49.307 63.1968 49.3148 63.1014C49.4015 62.6071 49.5826 62.134 49.8482 61.7081L49.9517 61.533C49.9708 61.5124 49.9813 61.4854 49.9813 61.4574C49.9813 61.4293 49.9708 61.4023 49.9517 61.3817H49.904H49.8562L49.1397 61.7081L48.7814 61.8674L48.4151 62.0107L47.6827 62.2973L46.9422 62.5521C46.9215 62.5604 46.9038 62.5746 46.8913 62.5931C46.8788 62.6115 46.8721 62.6333 46.8721 62.6556C46.8721 62.6779 46.8788 62.6996 46.8913 62.7181C46.9038 62.7365 46.9215 62.7508 46.9422 62.7591H47.0696C47.5375 62.8796 47.9835 63.073 48.3913 63.3323C48.4825 63.3931 48.5678 63.4624 48.646 63.5393C48.7359 63.6288 48.816 63.7275 48.8849 63.8339C48.9546 63.9391 49.0133 64.0511 49.06 64.1683V64.2559L49.1397 64.4788C48.9984 64.3705 48.8463 64.2771 48.6858 64.2001C48.5854 64.1506 48.4817 64.108 48.3753 64.0728C48.1183 63.9867 47.8501 63.9385 47.5792 63.9294C47.3088 63.9213 47.0391 63.9618 46.783 64.0489C46.6253 64.0926 46.4731 64.1541 46.3292 64.232C45.9459 64.4478 45.6227 64.756 45.389 65.1287C45.1554 65.5014 45.0188 65.9267 44.9916 66.3657C44.9782 66.5819 44.9943 66.7988 45.0394 67.0106C45.1515 67.545 45.4579 68.0187 45.8993 68.3402C45.9952 68.4114 46.0963 68.4753 46.2018 68.5313C46.3493 68.6095 46.5039 68.6735 46.6636 68.7224C46.8275 68.7679 46.9955 68.7973 47.1652 68.81C47.5246 68.8361 47.8858 68.7984 48.232 68.6985L48.4311 68.6268L48.7495 68.4756C48.6315 68.7062 48.5483 68.953 48.5027 69.208C48.4379 69.5525 48.457 69.9075 48.5585 70.243L48.6142 70.3943C48.6916 70.5902 48.7991 70.7729 48.9327 70.9357C49.0771 71.1111 49.2492 71.2617 49.4422 71.3816C49.5491 71.4483 49.6609 71.5068 49.7766 71.5567C50.2286 71.748 50.7209 71.8246 51.2097 71.7797C51.4801 71.7555 51.747 71.7022 52.0059 71.6204L52.181 71.5567H52.2447C52.4361 71.4844 52.6201 71.3937 52.7941 71.286C53.2838 71.0012 53.6922 70.5955 53.9804 70.1077C54.0375 69.9923 54.0854 69.8725 54.1237 69.7494C54.2676 69.377 54.3062 68.972 54.2351 68.5791C54.1984 68.4076 54.1395 68.2417 54.06 68.0854C53.9612 67.898 53.8351 67.7262 53.6858 67.5759C53.399 67.2734 53.0401 67.0488 52.6428 66.923H52.7065C52.8682 66.8727 53.0253 66.8088 53.1762 66.732C53.4741 66.5872 53.7438 66.3904 53.9724 66.1508C54.1814 65.9157 54.3484 65.6464 54.466 65.3546C54.5117 65.2434 54.549 65.129 54.5775 65.0122C54.6387 64.7208 54.6387 64.4199 54.5775 64.1285C54.5293 63.8286 54.421 63.5415 54.259 63.2846C54.1924 63.1808 54.1179 63.0823 54.0361 62.99C53.8777 62.8164 53.6954 62.6663 53.4947 62.5441Z" fill="#97173A"/>
<path d="M32.8181 65.7127C32.7497 65.4486 32.6366 65.1982 32.4837 64.9723C32.3339 64.7404 32.1546 64.529 31.9503 64.3433L31.7034 64.1363C31.6091 64.0669 31.5107 64.0031 31.4089 63.9453C31.2713 63.8604 31.1276 63.7859 30.9789 63.7223C30.6949 63.6 30.3886 63.5376 30.0793 63.5392C29.798 63.536 29.5218 63.6133 29.2831 63.7621L29.092 63.9054L29.1557 63.7462L29.2194 63.6029C29.3124 63.428 29.4429 63.2757 29.6016 63.157C29.7147 63.0754 29.8345 63.0034 29.9598 62.9421L30.0872 62.8863C30.2196 62.8307 30.3552 62.7828 30.4933 62.743L30.8436 62.6475C30.8588 62.6405 30.8717 62.6293 30.8808 62.6152C30.8899 62.6011 30.8947 62.5846 30.8947 62.5679C30.8947 62.5511 30.8899 62.5347 30.8808 62.5206C30.8717 62.5065 30.8588 62.4952 30.8436 62.4883L30.541 62.3848L30.2465 62.2653L29.6573 62.0344C29.4583 61.9628 29.2672 61.8673 29.0761 61.7876L28.5029 61.5249H28.4551C28.4408 61.5277 28.4275 61.5339 28.4163 61.5431C28.405 61.5523 28.3962 61.5641 28.3907 61.5775C28.3852 61.591 28.3831 61.6056 28.3846 61.62C28.3861 61.6344 28.3912 61.6483 28.3993 61.6602C28.4777 61.7756 28.5494 61.8952 28.6143 62.0185C28.7468 62.2691 28.8433 62.5372 28.9009 62.8147C28.9009 62.8147 28.9009 62.8943 28.9009 62.9262C28.9268 63.1784 28.8884 63.4331 28.7895 63.6666L28.7258 63.8179C28.7191 63.7158 28.7031 63.6145 28.678 63.5153C28.5976 63.2254 28.4344 62.9653 28.2083 62.7669C28.0917 62.6623 27.9635 62.5715 27.8261 62.4962C27.6876 62.4102 27.5409 62.3382 27.3882 62.2813C27.2205 62.2175 27.0473 62.1695 26.8707 62.1379H26.6637H26.3452C25.7881 62.1025 25.2332 62.2357 24.7529 62.5201C24.6572 62.5787 24.5667 62.6453 24.4822 62.7192L24.3309 62.8704C24.2475 62.9614 24.1729 63.06 24.108 63.165L24.0602 63.2446L23.9727 63.4039C23.6474 63.9073 23.4707 64.4924 23.4631 65.0917C23.454 65.9025 23.5777 66.7094 23.8294 67.4802C24.0111 68.0379 24.2292 68.5832 24.4822 69.1124C24.53 69.2159 24.5857 69.3273 24.6414 69.4229L24.6892 69.5184C25.0134 70.1251 25.3806 70.7077 25.7879 71.262C25.8018 71.2799 25.8202 71.2937 25.8412 71.3021C25.8622 71.3105 25.885 71.3131 25.9073 71.3098H25.987L26.7035 71.1744C27.0851 71.0988 27.4625 71.0032 27.8341 70.8878L28.1685 70.7764C28.4392 70.6888 28.7178 70.5853 28.9646 70.4738L29.3866 70.2987L29.8086 70.0917L30.1031 69.9324C30.3261 69.805 30.541 69.6777 30.748 69.5423C30.955 69.407 31.1461 69.2636 31.3213 69.1203C31.4978 68.9712 31.6653 68.8117 31.8229 68.6426C32.3002 68.1791 32.6204 67.5777 32.7385 66.9229C32.7385 66.8353 32.7862 66.7478 32.8101 66.6602C32.834 66.5726 32.8101 66.5646 32.8101 66.5169C32.8286 66.3608 32.8286 66.2032 32.8101 66.0471C32.8219 65.9361 32.8246 65.8242 32.8181 65.7127Z" fill="#97173A"/>
<path d="M15.2705 48.3005H14.9282C14.623 48.2752 14.3198 48.23 14.0206 48.1652C13.7509 48.1036 13.4851 48.0265 13.2244 47.9343L12.9059 47.8148C12.6065 47.693 12.3165 47.5493 12.0381 47.3849C11.8014 47.244 11.5728 47.0898 11.3534 46.9231L11.0827 46.7082C10.7882 46.4588 10.5212 46.1785 10.2865 45.8722C10.1928 45.7574 10.1051 45.6378 10.0238 45.5139C9.99376 45.7285 9.95123 45.9412 9.89642 46.1508C9.89642 46.2544 9.84069 46.3738 9.80088 46.5012C9.64321 47.1081 9.43823 47.7017 9.18783 48.2766L9.05248 48.5951C8.80045 49.1637 8.505 49.712 8.16874 50.2352L7.97766 50.5298C7.66628 51.0032 7.32033 51.4529 6.94264 51.8753C6.77279 52.0664 6.59233 52.2548 6.40125 52.4406H6.79137C7.07799 52.4406 7.35665 52.4406 7.6353 52.4963C7.91396 52.552 8.36778 52.5839 8.70217 52.6555L9.05248 52.7272C9.37891 52.7988 9.69738 52.8864 9.99196 52.974C10.2865 53.0616 10.5811 53.1571 10.8439 53.2527L11.1703 53.38C11.5126 53.5154 11.8152 53.6587 12.1018 53.7941C12.3884 53.9294 12.6432 54.0647 12.898 54.1842L13.2085 54.3673L13.5031 54.5584L13.726 54.7017L13.9091 54.8291C13.877 54.6792 13.8531 54.5277 13.8374 54.3753C13.803 53.9673 13.803 53.5571 13.8374 53.1492C13.8374 53.043 13.8374 52.9315 13.8374 52.8148C13.9321 52.234 14.0978 51.6671 14.3311 51.1269C14.3709 51.0314 14.4186 50.9358 14.4664 50.8323C14.7372 50.3213 15.0658 49.8431 15.4457 49.4072L15.6686 49.1604C15.9752 48.8313 16.308 48.5278 16.6638 48.2527C16.2014 48.3057 15.7355 48.3216 15.2705 48.3005Z" fill="#97173A"/>
<path d="M16.0666 28.1576C16.0666 28.054 16.0109 27.9426 15.987 27.8311C15.8756 27.3295 15.7084 26.7245 15.5253 26.0796L15.4297 25.7531C15.3421 25.4665 15.2466 25.1719 15.1431 24.8694L14.9759 24.4235C14.9202 24.2802 14.8644 24.1289 14.8007 23.9856L14.6574 23.6592C14.3826 23.0306 14.009 22.4501 13.5508 21.9395C13.45 21.8331 13.3437 21.7321 13.2323 21.6369L13.1288 21.5414C13.0125 21.4461 12.8901 21.3583 12.7626 21.2787L12.5396 21.1354C12.2717 20.9614 11.9708 20.8448 11.6557 20.7927C11.3405 20.7406 11.018 20.7543 10.7084 20.8328C10.5811 20.8639 10.4561 20.9039 10.3342 20.9522C10.1462 21.0265 9.96505 21.117 9.79285 21.2229C9.62105 21.3342 9.45862 21.4594 9.30719 21.5971C8.99851 21.8829 8.73061 22.2097 8.51103 22.5685C8.40274 22.7501 8.30698 22.939 8.22441 23.1337C8.17664 23.2532 8.12887 23.3805 8.08906 23.5C8.03819 23.6562 7.99829 23.8159 7.96963 23.9777C7.88779 24.3314 7.90546 24.7009 8.02069 25.0451C8.13592 25.3894 8.34421 25.6951 8.62249 25.9283C8.31437 25.8856 8.00044 25.9224 7.71058 26.0353C7.42072 26.1482 7.16455 26.3333 6.96646 26.5732C6.85981 26.6854 6.76137 26.8051 6.67188 26.9315L6.60022 27.0429C6.4702 27.2521 6.36088 27.4734 6.2738 27.7037C6.19304 27.9113 6.12654 28.1241 6.07475 28.3407C6.02115 28.5572 5.98915 28.7786 5.97921 29.0015C5.92677 29.4339 5.94289 29.8719 6.02698 30.2992C6.06192 30.4274 6.10719 30.5526 6.16233 30.6734C6.2974 31.0039 6.50483 31.2999 6.76938 31.5397C7.03392 31.7794 7.34884 31.9568 7.69097 32.0588H7.79448C7.89637 32.0891 8.00008 32.1131 8.10498 32.1304H8.16867C8.39046 32.1863 8.61706 32.221 8.84542 32.2339H9.26738C9.93909 32.2205 10.6049 32.105 11.2419 31.8916L11.5842 31.7721C12.1646 31.5401 12.7308 31.2743 13.2801 30.976L13.5906 30.8167L14.4265 30.3629L14.8087 30.148L15.167 29.9489L15.4616 29.7817C15.8995 29.5349 16.194 29.3518 16.3373 29.2881L16.0666 28.1576Z" fill="#97173A"/>
<path d="M24.1719 15.0685C24.3372 15.2586 24.5305 15.4224 24.7452 15.5542C25.1765 15.8252 25.6769 15.9661 26.1862 15.9602C26.3055 15.9697 26.4253 15.9697 26.5445 15.9602C26.6657 15.9426 26.7855 15.916 26.9028 15.8806C27.0292 15.8414 27.1518 15.7908 27.269 15.7293C27.7712 15.4696 28.172 15.0491 28.4075 14.5351C28.4543 14.4317 28.4942 14.3253 28.527 14.2166C28.5728 14.0709 28.6074 13.9218 28.6305 13.7708L28.7658 14.0972C28.8014 14.1825 28.8307 14.2703 28.8534 14.3599C28.8871 14.4874 28.9058 14.6183 28.9091 14.7501C28.9171 14.8454 28.9171 14.9413 28.9091 15.0367C28.8222 15.531 28.6411 16.004 28.3757 16.43L28.2722 16.5972C28.2532 16.6178 28.2426 16.6448 28.2426 16.6728C28.2426 16.7008 28.2532 16.7278 28.2722 16.7484H28.32H28.3757L29.0922 16.43L29.4505 16.2707L29.8168 16.1274L30.5492 15.8408L31.2897 15.586C31.3104 15.5778 31.3281 15.5635 31.3406 15.545C31.3531 15.5266 31.3598 15.5048 31.3598 15.4825C31.3598 15.4602 31.3531 15.4385 31.3406 15.42C31.3281 15.4016 31.3104 15.3873 31.2897 15.379H31.1623C30.6942 15.2589 30.2482 15.0654 29.8406 14.8058C29.7494 14.745 29.6641 14.6757 29.5859 14.5988C29.496 14.5094 29.4159 14.4106 29.347 14.3042C29.2773 14.199 29.2186 14.087 29.1719 13.9698V13.8822L29.0922 13.6593C29.2334 13.7677 29.3855 13.8611 29.5461 13.938C29.6465 13.9877 29.7502 14.0302 29.8566 14.0653C30.1129 14.1552 30.3813 14.2062 30.6527 14.2166C30.9226 14.2261 31.192 14.1884 31.4489 14.1052C31.6066 14.0614 31.7588 14 31.9027 13.922C32.255 13.673 32.5418 13.3425 32.7387 12.9587C32.9787 12.5836 33.1185 12.1532 33.1447 11.7087C33.1581 11.4926 33.1421 11.2756 33.097 11.0638C32.9868 10.5306 32.6834 10.0571 32.2451 9.7342C32.1491 9.66303 32.048 9.59916 31.9425 9.54312C31.7951 9.46481 31.6404 9.40082 31.4807 9.35204C31.3171 9.30541 31.149 9.27605 30.9792 9.26446C30.6198 9.23828 30.2585 9.27602 29.9123 9.37592L29.7053 9.44758L29.3868 9.59885C29.5048 9.3682 29.5879 9.12137 29.6336 8.86638C29.7014 8.52256 29.685 8.16747 29.5859 7.83136L29.554 7.68009C29.4767 7.48414 29.3693 7.30147 29.2356 7.13869C29.1012 6.96545 28.9399 6.81491 28.7579 6.69284C28.6509 6.62616 28.5392 6.56761 28.4235 6.51768C27.9711 6.32766 27.4791 6.25113 26.9904 6.29476C26.72 6.31886 26.453 6.37225 26.1942 6.45399L26.019 6.51768H25.9553C25.7645 6.59128 25.5806 6.68188 25.406 6.78838C24.9288 7.09069 24.5369 7.51003 24.2675 8.00652C24.2095 8.12159 24.1615 8.24146 24.1242 8.36479C23.9983 8.73369 23.9735 9.12957 24.0525 9.51127C24.0893 9.68271 24.1481 9.84864 24.2277 10.0049C24.3264 10.1924 24.4525 10.3641 24.6019 10.5144C24.8781 10.7918 25.2166 10.9993 25.5891 11.1195L25.5732 11.1912C25.4115 11.2415 25.2544 11.3054 25.1035 11.3823C24.8062 11.528 24.5367 11.7247 24.3073 11.9635C24.0982 12.1985 23.9313 12.4679 23.8137 12.7596C23.7679 12.8708 23.7307 12.9852 23.7022 13.102C23.6365 13.3853 23.6273 13.6788 23.6751 13.9657C23.7229 14.2526 23.8268 14.5272 23.9809 14.7739C24.0372 14.8767 24.1011 14.9751 24.1719 15.0685Z" fill="#97173A"/>
<path d="M46.0105 49.5347C46.3303 49.8547 46.7301 50.0829 47.1683 50.1954C47.6064 50.3079 48.0667 50.3006 48.5011 50.1742C48.9354 50.0478 49.3278 49.807 49.6372 49.477C49.9466 49.147 50.1616 48.7399 50.2597 48.2983C50.3578 47.8567 50.3355 47.3969 50.195 46.9669C50.0545 46.537 49.801 46.1526 49.4611 45.8542C49.1211 45.5558 48.7072 45.3542 48.2627 45.2705C47.8181 45.1869 47.3593 45.2242 46.9341 45.3787C46.8306 45.1717 46.7271 44.9806 46.6236 44.7895C46.4008 44.4 46.1535 44.025 45.8832 43.6669L45.4851 43.1415L45.0711 42.624C44.6305 42.0932 44.1741 41.5624 43.7017 41.0316C43.9729 40.4031 44.1128 39.7258 44.1128 39.0412C44.1128 38.3567 43.9729 37.6793 43.7017 37.0508C44.1741 36.52 44.6305 35.9892 45.0711 35.4585L45.4851 34.9409L45.8832 34.4155C46.1535 34.0574 46.4008 33.6824 46.6236 33.2929C46.7351 33.1018 46.8386 32.9028 46.9341 32.7037C47.4739 32.9009 48.0649 32.9079 48.6092 32.7237C49.1536 32.5394 49.6188 32.1749 49.9278 31.6903C50.2369 31.2058 50.3713 30.6303 50.3089 30.059C50.2465 29.4877 49.991 28.9548 49.5846 28.5484C49.1783 28.1421 48.6454 27.8865 48.0741 27.8241C47.5027 27.7617 46.9272 27.8962 46.4427 28.2052C45.9582 28.5143 45.5937 28.9795 45.4094 29.5238C45.2251 30.0682 45.2322 30.6591 45.4293 31.199C45.2223 31.3025 45.0313 31.406 44.8402 31.5095C44.4506 31.7322 44.0757 31.9795 43.7176 32.2499L43.1921 32.648L42.6746 33.062C42.1438 33.5025 41.613 33.959 41.0823 34.4314C40.4537 34.1602 39.7764 34.0203 39.0919 34.0203C38.4073 34.0203 37.73 34.1602 37.1014 34.4314C36.5707 33.959 36.0399 33.5025 35.5091 33.062L35.0314 32.6878L34.5059 32.2897C34.1478 32.0193 33.7729 31.772 33.3833 31.5493C33.1923 31.4378 32.9932 31.3343 32.7942 31.2388C32.9913 30.699 32.9984 30.108 32.8141 29.5636C32.6298 29.0193 32.2653 28.5541 31.7808 28.245C31.2963 27.936 30.7208 27.8015 30.1495 27.8639C29.5782 27.9263 29.0453 28.1819 28.6389 28.5882C28.2325 28.9946 27.977 29.5275 27.9146 30.0988C27.8522 30.6701 27.9866 31.2456 28.2957 31.7301C28.6048 32.2147 29.0699 32.5792 29.6143 32.7635C30.1586 32.9477 30.7496 32.9407 31.2894 32.7435C31.3929 32.9505 31.4964 33.1416 31.5999 33.3327C31.8226 33.7222 32.07 34.0972 32.3404 34.4553L32.7384 34.9808L33.1524 35.4983C33.593 36.029 34.0495 36.5598 34.5219 37.0906C34.2506 37.7191 34.1107 38.3965 34.1107 39.081C34.1107 39.7656 34.2506 40.4429 34.5219 41.0714C34.0495 41.6022 33.593 42.133 33.1524 42.6638L32.7384 43.1813L32.3404 43.7067C32.07 44.0649 31.8227 44.4398 31.5999 44.8293C31.4885 45.0204 31.385 45.2195 31.2894 45.4185C30.7496 45.2213 30.1586 45.2143 29.6143 45.3986C29.0699 45.5828 28.6048 45.9474 28.2957 46.4319C27.9866 46.9164 27.8522 47.4919 27.9146 48.0632C27.977 48.6345 28.2325 49.1674 28.6389 49.5738C29.0453 49.9802 29.5782 50.2357 30.1495 50.2981C30.7208 50.3605 31.2963 50.226 31.7808 49.917C32.2653 49.6079 32.6298 49.1428 32.8141 48.5984C32.9984 48.054 32.9913 47.4631 32.7942 46.9233C33.0012 46.8198 33.1923 46.7163 33.3833 46.6128C33.7729 46.39 34.1478 46.1427 34.5059 45.8723L35.0314 45.4742L35.5489 45.0602C36.0797 44.6197 36.6105 44.1632 37.1412 43.6908C37.7698 43.962 38.4471 44.1019 39.1317 44.1019C39.8162 44.1019 40.4935 43.962 41.1221 43.6908C41.6529 44.1632 42.1836 44.6197 42.7144 45.0602L43.2319 45.4742L43.7574 45.8723C44.1155 46.1427 44.4904 46.39 44.88 46.6128C45.0711 46.7242 45.2701 46.8277 45.4692 46.9233C45.3065 47.3657 45.2711 47.8448 45.3667 48.3063C45.4624 48.7679 45.6854 49.1934 46.0105 49.5347ZM46.2733 46.3022C46.465 46.0931 46.6971 45.925 46.9555 45.8079C47.2139 45.6908 47.4934 45.6273 47.777 45.6212C48.0607 45.615 48.3426 45.6663 48.6059 45.772C48.8692 45.8778 49.1083 46.0357 49.3089 46.2363C49.5096 46.4369 49.6675 46.6761 49.7732 46.9393C49.8789 47.2026 49.9302 47.4846 49.9241 47.7682C49.9179 48.0518 49.8544 48.3313 49.7373 48.5897C49.6203 48.8482 49.4521 49.0802 49.243 49.272C49.162 49.3537 49.0741 49.4282 48.9802 49.4949C49.2667 49.09 49.4009 48.5969 49.3589 48.1027C49.3169 47.6086 49.1015 47.1451 48.7508 46.7944C48.4001 46.4437 47.9367 46.2283 47.4425 46.1864C46.9483 46.1444 46.4552 46.2785 46.0504 46.565C46.117 46.4712 46.1916 46.3833 46.2733 46.3022ZM46.3609 28.9219C46.5561 28.726 46.7882 28.5705 47.0436 28.4644C47.2991 28.3583 47.5731 28.3037 47.8497 28.3037C48.1263 28.3037 48.4002 28.3583 48.6557 28.4644C48.9112 28.5705 49.1432 28.726 49.3385 28.9219C49.4202 29.0029 49.4948 29.0908 49.5614 29.1847C49.1566 28.8982 48.6635 28.764 48.1693 28.806C47.6751 28.848 47.2117 29.0634 46.861 29.4141C46.5103 29.7648 46.2949 30.2282 46.2529 30.7224C46.2109 31.2166 46.3451 31.7097 46.6316 32.1146C46.5322 32.0487 46.439 31.9741 46.3529 31.8916C45.9596 31.4976 45.7387 30.9635 45.7387 30.4068C45.7387 29.85 45.9596 29.316 46.3529 28.9219H46.3609ZM31.9423 31.812C31.7506 32.0211 31.5185 32.1893 31.2601 32.3064C31.0016 32.4234 30.7222 32.4869 30.4385 32.4931C30.1549 32.4993 29.8729 32.4479 29.6096 32.3422C29.3464 32.2365 29.1072 32.0786 28.9066 31.878C28.706 31.6774 28.5481 31.4382 28.4424 31.1749C28.3366 30.9117 28.2853 30.6297 28.2915 30.3461C28.2976 30.0624 28.3612 29.783 28.4782 29.5245C28.5953 29.2661 28.7634 29.034 28.9726 28.8423C29.0536 28.7606 29.1415 28.686 29.2353 28.6194C28.9488 29.0242 28.8147 29.5173 28.8567 30.0115C28.8987 30.5057 29.1141 30.9691 29.4648 31.3198C29.8155 31.6705 30.2789 31.8859 30.7731 31.9279C31.2672 31.9699 31.7604 31.8358 32.1652 31.5493C32.0986 31.6431 32.024 31.731 31.9423 31.812ZM34.2034 35.7928C34.0043 35.562 33.8133 35.3311 33.6142 35.0843L33.2082 34.5747L32.8181 34.0572C32.7066 33.9059 32.5951 33.7547 32.4916 33.5954L32.6907 33.3964C32.7942 33.5556 32.9056 33.7069 33.0171 33.8582L33.4072 34.3757L33.8133 34.8852C34.0123 35.132 34.2113 35.3629 34.4024 35.5938L34.2034 35.7928ZM31.8627 49.1923C31.6674 49.3883 31.4353 49.5438 31.1799 49.6498C30.9244 49.7559 30.6505 49.8105 30.3738 49.8105C30.0972 49.8105 29.8233 49.7559 29.5678 49.6498C29.3123 49.5438 29.0803 49.3883 28.885 49.1923C28.8033 49.1113 28.7287 49.0234 28.6621 48.9296C29.0669 49.2161 29.56 49.3502 30.0542 49.3082C30.5484 49.2662 31.0118 49.0508 31.3625 48.7001C31.7132 48.3494 31.9286 47.886 31.9706 47.3918C32.0126 46.8977 31.8785 46.4045 31.592 45.9997C31.6857 46.0664 31.7736 46.141 31.8547 46.2226C32.2491 46.6156 32.4714 47.1491 32.4729 47.7058C32.4744 48.2626 32.2549 48.7972 31.8627 49.1923ZM34.5059 36.1591L34.705 35.96L34.9677 36.2546L34.8164 36.4935L34.5059 36.1591ZM35.1269 44.5427L34.6174 44.9488L34.0999 45.3389L33.6381 45.6653L33.4391 45.4663L33.9008 45.1398L34.4184 44.7497L34.9279 44.3437L35.6365 43.7545L35.8355 43.9536L35.1269 44.5427ZM36.1699 43.659L35.9709 43.4599L36.2655 43.1972L36.5043 43.3485L36.1699 43.659ZM40.7081 40.6893C40.3843 41.0139 39.9715 41.2352 39.5219 41.325C39.0723 41.4149 38.6062 41.3694 38.1825 41.1942C37.7588 41.019 37.3966 40.7221 37.1417 40.3409C36.8869 39.9598 36.7508 39.5116 36.7508 39.0531C36.7508 38.5947 36.8869 38.1465 37.1417 37.7654C37.3966 37.3842 37.7588 37.0873 38.1825 36.9121C38.6062 36.7369 39.0723 36.6914 39.5219 36.7813C39.9715 36.8711 40.3843 37.0924 40.7081 37.417C41.1455 37.8471 41.3945 38.4331 41.4005 39.0466C41.4065 39.66 41.1689 40.2508 40.7399 40.6893H40.7081ZM41.8784 34.9091L41.6396 34.7578L41.974 34.4553L42.173 34.6543L41.8784 34.9091ZM42.5074 34.3518L42.3084 34.1527L43.017 33.5636L43.5265 33.1575L44.044 32.7674L44.5058 32.441L44.7048 32.64L44.2431 32.9665L43.7255 33.3566L43.216 33.7626L42.5074 34.3518ZM43.4867 42.1542L43.224 41.8596L43.3752 41.6208L43.6778 41.9552L43.4867 42.1542ZM45.1666 44.2243L44.7765 43.7067L44.3704 43.1972C44.1714 42.9504 43.9724 42.7195 43.7813 42.4886L43.9803 42.2896C44.1794 42.5205 44.3704 42.7513 44.5695 42.9982L44.9755 43.5077L45.3656 44.0252C45.4771 44.1765 45.5886 44.3278 45.6921 44.487L45.493 44.686C45.4214 44.5268 45.3099 44.3755 45.1985 44.2243H45.1666Z" fill="#97173A"/>
</svg>
