<svg width="76" height="76" viewBox="0 0 76 76" fill="none" xmlns="http://www.w3.org/2000/svg">
<path fill-rule="evenodd" clip-rule="evenodd" d="M35.8414 11.3277C33.2878 11.5359 30.7601 12.112 28.3706 13.0346L25.358 6.77982C28.7035 5.42854 32.2406 4.6199 35.8414 4.3843V11.3277ZM24.4885 14.9012C22.2997 16.1795 20.2751 17.7816 18.4936 19.6831L13.0627 15.3496C15.5251 12.6334 18.3736 10.3883 21.4759 8.64487L24.4885 14.9012ZM15.8108 23.056C14.379 25.1855 13.2527 27.5111 12.4775 29.9583L5.70282 28.411C6.73035 24.956 8.31723 21.6789 10.3768 18.7225L15.8108 23.056ZM11.5153 34.1581C11.1429 36.7224 11.1505 39.3064 11.5168 41.828L4.74978 43.3709C4.17674 39.8384 4.16306 36.2056 4.7437 32.6108L11.5153 34.1581ZM12.4729 46.0263C13.239 48.4629 14.3532 50.793 15.7956 52.9377L10.3632 57.2667C8.28987 54.2875 6.72427 51.0073 5.70586 47.5691L12.4729 46.0263ZM35.8354 64.6752L35.8308 71.6216C32.2907 71.3967 28.7476 70.6078 25.3382 69.22L28.3569 62.9606C30.7965 63.9061 33.3152 64.4715 35.8354 64.6752ZM47.6199 62.9698L50.628 69.2261C47.2795 70.5759 43.7348 71.386 40.1324 71.6186L40.137 64.6752C42.7012 64.4685 45.2183 63.8924 47.6199 62.9698ZM57.4969 56.3273L62.9279 60.6639C60.464 63.3802 57.6109 65.6252 54.5071 67.3656L51.499 61.1078C53.6878 59.8294 55.7124 58.2289 57.4969 56.3273ZM63.5161 46.0537L70.2908 47.6056C69.2602 51.0651 67.6733 54.3331 65.6122 57.2926L60.1812 52.956C61.6116 50.828 62.7409 48.4993 63.5161 46.0537ZM64.4859 34.184L71.2545 32.6457C71.826 36.1782 71.8397 39.8125 71.2575 43.4058L64.4844 41.8554C64.8552 39.2927 64.8507 36.7087 64.4859 34.184ZM60.2132 23.0743L65.6457 18.7483C67.7189 21.7291 69.2815 25.0092 70.2984 28.449L63.5298 29.9872C62.7652 27.5491 61.6526 25.2175 60.2132 23.0743ZM51.5339 14.9194L54.5542 8.66615C57.7234 10.4765 60.5096 12.6683 62.9628 15.3754L57.5288 19.7014C55.8128 17.8682 53.8079 16.2525 51.5339 14.9194ZM18.483 56.3076C20.1991 58.1362 22.2055 59.7519 24.4794 61.0834L21.4607 67.3443C18.2884 65.534 15.5038 63.3452 13.0475 60.6381L18.483 56.3076ZM39.6308 33.6763L47.1244 25.4728L50.5277 28.8761L42.3242 36.3697V39.6316L50.5277 47.1253L47.1244 50.5285L39.6308 42.3266H36.3689L28.8753 50.5285L25.472 47.1253L33.6739 39.6316V36.3697L25.472 28.8761L28.8753 25.4728L36.3689 33.6763H39.6308ZM74.6988 28.1693C69.2739 7.91831 48.4164 -4.1262 28.1685 1.30173C7.91443 6.72662 -4.12399 27.5826 1.3009 47.8336C6.72731 68.0831 27.5817 80.1276 47.8312 74.6996C68.0822 69.2763 80.1252 48.4188 74.6988 28.1693ZM47.6549 13.0468C45.2092 12.0968 42.686 11.5298 40.1582 11.3262V4.37974C43.7059 4.6047 47.2582 5.39662 50.6751 6.78894L47.6549 13.0468Z" fill="#97173A"/>
</svg>
