<svg width="75" height="77" viewBox="0 0 75 77" fill="none" xmlns="http://www.w3.org/2000/svg">
<path d="M28.314 47.6134C22.4766 58.3356 23.0709 57.2935 22.8593 57.5052C23.6507 58.1898 24.6622 58.5666 25.7087 58.5666C26.7552 58.5666 27.7668 58.1898 28.5582 57.5052C28.485 54.1184 28.4605 53.752 28.314 47.6134Z" fill="#97173A"/>
<path d="M51.5819 29.5312C52.754 29.4285 53.9348 29.5631 55.0538 29.9267C56.1729 30.2904 57.2071 30.8758 58.095 31.648L61.0747 29.0346L45.4351 13.4031L17.0053 45.9036C16.3223 46.6958 15.9465 47.707 15.9465 48.753C15.9465 49.7991 16.3223 50.8103 17.0053 51.6025C17.217 51.3909 15.9388 52.1154 28.2893 45.3907C28.1102 38.8043 28.216 42.4028 28.0695 37.1353C28.0542 36.5691 28.1527 36.0056 28.3592 35.4782C28.5656 34.9508 28.8757 34.4702 29.2713 34.0648C29.6668 33.6594 30.1396 33.3375 30.6618 33.1182C31.1839 32.8988 31.7448 32.7865 32.3112 32.7878H36.8541C37.4204 32.7865 37.9813 32.8988 38.5034 33.1182C39.0256 33.3375 39.4984 33.6594 39.8939 34.0648C40.2895 34.4702 40.5996 34.9508 40.806 35.4782C41.0125 36.0056 41.111 36.5691 41.0957 37.1353C40.9573 42.1178 41.0957 37.2737 40.8433 46.7503L45.028 43.0866C44.2011 41.8176 43.716 40.3566 43.6198 38.845C43.5235 37.3334 43.8194 35.8226 44.4787 34.459C45.138 33.0954 46.1383 31.9252 47.3828 31.0618C48.6273 30.1985 50.0737 29.6712 51.5819 29.5312ZM40.0129 27.6994C39.937 27.7753 39.8469 27.8355 39.7477 27.8766C39.6485 27.9177 39.5422 27.9388 39.4349 27.9388C39.3275 27.9388 39.2212 27.9177 39.122 27.8766C39.0229 27.8355 38.9328 27.7753 38.8568 27.6994C38.7809 27.6235 38.7207 27.5334 38.6796 27.4342C38.6386 27.335 38.6174 27.2287 38.6174 27.1213C38.6174 27.014 38.6386 26.9077 38.6796 26.8085C38.7207 26.7093 38.7809 26.6192 38.8568 26.5433L43.9778 21.4305C44.1335 21.2971 44.3339 21.2274 44.5388 21.2353C44.7437 21.2433 44.938 21.3282 45.083 21.4732C45.228 21.6182 45.313 21.8126 45.3209 22.0175C45.3288 22.2224 45.2591 22.4227 45.1257 22.5784L40.0129 27.6994Z" fill="#97173A"/>
<path d="M70.389 20.877L65.325 15.813C65.1734 15.6605 65.0883 15.4541 65.0883 15.2391C65.0883 15.024 65.1734 14.8176 65.325 14.6651C65.4776 14.5134 65.6839 14.4283 65.899 14.4283C66.1141 14.4283 66.3204 14.5134 66.473 14.6651C71.1787 19.3627 71.5695 19.729 71.6102 19.8104L72.5058 18.9963C73.0984 18.4822 73.5785 17.8512 73.916 17.1429C74.2535 16.4347 74.4411 15.6643 74.4671 14.8802C74.4931 14.096 74.3569 13.315 74.067 12.5859C73.7772 11.8568 73.3399 11.1955 72.7826 10.6432L63.827 1.68769C63.2748 1.13037 62.6134 0.693086 61.8844 0.403217C61.1553 0.113348 60.3742 -0.0228586 59.5901 0.00312681C58.8059 0.0291122 58.0356 0.21673 57.3273 0.55423C56.619 0.89173 55.9881 1.37184 55.4739 1.9645L52.9583 4.82213L69.6563 21.5201L70.389 20.877Z" fill="#97173A"/>
<path d="M68.4346 22.595L51.8831 6.05164L46.5179 12.1821L62.3041 27.9601L68.4346 22.595Z" fill="#97173A"/>
<path d="M7.7325 63.1798L4.57364 66.3305L3.7595 65.5164C3.4347 65.1942 2.99576 65.0135 2.53829 65.0135C2.08081 65.0135 1.64187 65.1942 1.31708 65.5164L0.502935 66.3305C0.180771 66.6553 0 67.0943 0 67.5517C0 68.0092 0.180771 68.4482 0.502935 68.7729L5.65644 73.9183C5.81674 74.0788 6.00711 74.2061 6.21665 74.293C6.4262 74.3799 6.65081 74.4246 6.87765 74.4246C7.10449 74.4246 7.32911 74.3799 7.53865 74.293C7.7482 74.2061 7.93856 74.0788 8.09886 73.9183L8.913 73.1042C9.23517 72.7794 9.41594 72.3404 9.41594 71.883C9.41594 71.4255 9.23517 70.9865 8.913 70.6618L8.09886 69.8476L11.3066 66.7783L7.7325 63.1798Z" fill="#97173A"/>
<path d="M18.1048 52.7993L15.2064 55.7058L18.7805 59.2799L21.687 56.3734L25.9612 48.517L18.1048 52.7993Z" fill="#97173A"/>
<path d="M14.0479 56.8537L8.8783 62.0233L12.4533 65.5983L17.6229 60.4287L14.0479 56.8537Z" fill="#97173A"/>
<path d="M55.547 46.4247C53.9772 47.0438 52.2621 47.1972 50.6074 46.8665C48.9526 46.5358 47.4283 45.7351 46.2169 44.5603L46.3146 49.6243H55.433L55.547 46.4247Z" fill="#97173A"/>
<path d="M30.5775 71.3944H33.7282C33.9441 71.3944 34.1512 71.4802 34.3039 71.6328C34.4565 71.7855 34.5423 71.9926 34.5423 72.2085C34.5423 72.4245 34.4565 72.6315 34.3039 72.7842C34.1512 72.9369 33.9441 73.0227 33.7282 73.0227H30.6019L30.6914 76.5479H38.4095L39.0689 51.2526H30.032C30.5856 71.8585 30.4879 71.3944 30.5775 71.3944Z" fill="#97173A"/>
<path d="M36.8218 34.4407H32.2789C31.9301 34.4406 31.5849 34.5103 31.2635 34.6457C30.9421 34.781 30.6511 34.9794 30.4075 35.229C30.164 35.4786 29.9728 35.7745 29.8454 36.0991C29.718 36.4237 29.6568 36.7706 29.6655 37.1192L29.7469 40.1397H39.3538L39.4352 37.1192C39.4439 36.7706 39.3827 36.4237 39.2552 36.0991C39.1278 35.7745 38.9367 35.4786 38.6931 35.229C38.4496 34.9794 38.1585 34.781 37.8372 34.6457C37.5158 34.5103 37.1705 34.4406 36.8218 34.4407Z" fill="#97173A"/>
<path d="M29.9911 49.6244H39.1095L39.313 41.7679H29.7876L29.9911 49.6244Z" fill="#97173A"/>
<path d="M54.8469 73.5193L55.4249 51.2526H46.3879L47.0555 76.5479H62.166L69.1676 54.9895L60.5051 52.4249L54.8469 73.5193Z" fill="#97173A"/>
<path d="M71.789 38.2262L67.4334 36.9317C67.0993 36.8353 66.7493 36.8064 66.4039 36.8465C66.0585 36.8867 65.7246 36.9952 65.4215 37.1656C65.1184 37.3361 64.8523 37.5652 64.6386 37.8395C64.4249 38.1138 64.2679 38.4279 64.1768 38.7635L63.3627 41.6863L72.5787 44.4136L73.5313 41.5397C73.6403 41.208 73.6816 40.8576 73.6525 40.5096C73.6235 40.1616 73.5247 39.8229 73.3622 39.5138C73.1997 39.2047 72.9767 38.9314 72.7064 38.7102C72.4361 38.489 72.1242 38.3244 71.789 38.2262Z" fill="#97173A"/>
<path d="M60.9282 50.8454L69.6721 53.4343L72.0982 45.9687L62.9636 43.2576L60.9282 50.8454Z" fill="#97173A"/>
<path d="M59.5119 38.2834C59.5141 36.6077 58.9275 34.9845 57.8546 33.6973C56.7817 32.4101 55.2907 31.5407 53.642 31.2411C54.6107 33.4625 55.1107 35.8599 55.1107 38.2834C55.1107 40.7069 54.6107 43.1043 53.642 45.3257C55.2907 45.0261 56.7817 44.1567 57.8546 42.8695C58.9275 41.5823 59.5141 39.9591 59.5119 38.2834Z" fill="#97173A"/>
<path d="M51.7205 45.4153C54.0082 41.4992 54.0163 35.0757 51.7205 31.1597C49.9401 31.319 48.2837 32.1389 47.0774 33.458C45.8711 34.7771 45.2021 36.4999 45.2021 38.2875C45.2021 40.075 45.8711 41.7978 47.0774 43.1169C48.2837 44.436 49.9401 45.2559 51.7205 45.4153Z" fill="#97173A"/>
</svg>
