<svg width="93" height="77" viewBox="0 0 93 77" fill="none" xmlns="http://www.w3.org/2000/svg">
<path fill-rule="evenodd" clip-rule="evenodd" d="M3.59 8.32H2.82C1.27 8.32 0 9.59 0 11.14V64.64C0 66.19 1.26 67.46 2.82 67.46H45.09V62.33L40.75 64.95L35.28 61.64H10.24C6.58 61.64 3.59 58.66 3.59 54.99V8.32ZM82.78 29.78H57.3C57.22 29.78 57.15 29.81 57.08 29.87C57.03 29.93 56.99 30 56.99 30.09V36.83C56.99 36.91 57.03 36.99 57.08 37.05C57.14 37.11 57.21 37.14 57.3 37.14H82.78C82.87 37.14 82.94 37.1 83.01 37.05C83.06 36.99 83.1 36.91 83.1 36.83V30.09C83.1 30 83.06 29.93 83.01 29.87C82.95 29.82 82.88 29.78 82.78 29.78ZM57.3 26.81H82.78C83.68 26.81 84.51 27.18 85.1 27.77C85.7 28.36 86.07 29.19 86.07 30.09V36.83C86.07 37.73 85.7 38.56 85.1 39.15C84.5 39.74 83.68 40.11 82.78 40.11H57.3C56.41 40.11 55.58 39.74 54.99 39.15C54.39 38.56 54.02 37.74 54.02 36.83V30.09C54.02 29.19 54.39 28.36 54.99 27.77C55.59 27.18 56.41 26.81 57.3 26.81ZM55.51 47.32C54.69 47.32 54.02 46.66 54.02 45.84C54.02 45.02 54.69 44.36 55.51 44.36H59.73C60.55 44.36 61.21 45.03 61.21 45.84C61.21 46.66 60.55 47.32 59.73 47.32H55.51ZM67.94 47.32C67.12 47.32 66.45 46.66 66.45 45.84C66.45 45.02 67.12 44.36 67.94 44.36H72.16C72.98 44.36 73.65 45.03 73.65 45.84C73.65 46.66 72.98 47.32 72.16 47.32H67.94ZM80.36 47.32C79.54 47.32 78.88 46.66 78.88 45.84C78.88 45.02 79.54 44.36 80.36 44.36H84.58C85.4 44.36 86.07 45.03 86.07 45.84C86.07 46.66 85.4 47.32 84.58 47.32H80.36ZM55.51 57.83C54.69 57.83 54.02 57.17 54.02 56.35C54.02 55.53 54.69 54.87 55.51 54.87H59.73C60.55 54.87 61.21 55.53 61.21 56.35C61.21 57.17 60.55 57.83 59.73 57.83H55.51ZM67.94 57.83C67.12 57.83 66.45 57.17 66.45 56.35C66.45 55.53 67.12 54.87 67.94 54.87H72.16C72.98 54.87 73.65 55.53 73.65 56.35C73.65 57.17 72.98 57.83 72.16 57.83H67.94ZM80.36 57.83C79.54 57.83 78.88 57.17 78.88 56.35C78.88 55.53 79.54 54.87 80.36 54.87H84.58C85.4 54.87 86.07 55.53 86.07 56.35C86.07 57.17 85.4 57.83 84.58 57.83H80.36ZM55.51 68.35C54.69 68.35 54.02 67.69 54.02 66.87C54.02 66.05 54.69 65.39 55.51 65.39H59.73C60.55 65.39 61.21 66.05 61.21 66.87C61.21 67.69 60.55 68.35 59.73 68.35H55.51ZM67.94 68.35C67.12 68.35 66.45 67.69 66.45 66.87C66.45 66.05 67.12 65.39 67.94 65.39H72.16C72.98 65.39 73.65 66.05 73.65 66.87C73.65 67.69 72.98 68.35 72.16 68.35H67.94ZM80.36 68.35C79.54 68.35 78.88 67.69 78.88 66.87C78.88 66.05 79.54 65.39 80.36 65.39H84.58C85.4 65.39 86.07 66.05 86.07 66.87C86.07 67.69 85.4 68.35 84.58 68.35H80.36ZM54.09 20.71H86C89.32 20.71 92.03 23.42 92.03 26.74V70.19C92.03 73.51 89.32 76.22 86 76.22H54.09C50.78 76.22 48.07 73.51 48.07 70.19V26.74C48.06 23.42 50.78 20.71 54.09 20.71ZM80.14 8.32H77.92V17.74H82.95V11.14C82.96 9.59 81.7 8.32 80.14 8.32ZM10.24 0H33.65C37.57 0 40.76 3.2 40.76 7.12C40.76 3.21 43.97 0 47.88 0H71.29C73.3 0 74.96 1.65 74.96 3.68V17.74H54.09C49.15 17.74 45.1 21.79 45.1 26.74V58.85L40.76 61.47L36.13 58.66H10.24C8.22 58.66 6.56 57.01 6.56 54.98V3.68C6.56 1.66 8.22 0 10.24 0ZM32.76 25.96V27.44H24.52V25.96V24.48H32.76V25.96ZM24.52 20.48V19H32.76V20.48V21.96H24.52V20.48ZM35.69 44.14V45.62H12.38V44.14V42.66H35.69V44.14ZM35.69 39.08V40.56H12.38V39.08V37.6H35.69V39.08ZM35.69 34.03V35.51H12.38V34.03V32.55H35.69V34.03ZM19.6 20.35V26.09H13.86V20.35H19.6ZM12.38 17.38H21.08C21.9 17.38 22.56 18.04 22.56 18.86V27.57C22.56 28.39 21.9 29.05 21.08 29.05H12.38C11.56 29.05 10.89 28.39 10.89 27.57V18.86C10.89 18.05 11.56 17.38 12.38 17.38Z" fill="#FF1616"/>
</svg>
