<svg width="90" height="59" viewBox="0 0 90 59" fill="none" xmlns="http://www.w3.org/2000/svg">
<path d="M29.7549 26.6948C30.771 25.1705 31.3131 23.3796 31.313 21.5477C31.3129 19.7158 30.7706 17.9249 29.7544 16.4008L24.6074 21.5476L29.7549 26.6948Z" fill="#FF1616"/>
<path d="M16.8521 29.3022C18.3766 30.3185 20.1678 30.8608 22 30.8608C23.8322 30.8608 25.6234 30.3185 27.148 29.3022L22.0001 24.1547L16.8521 29.3022Z" fill="#FF1616"/>
<path d="M19.3926 21.5476L14.2456 16.4008C13.2297 17.9251 12.6876 19.7159 12.6875 21.5477C12.6874 23.3795 13.2294 25.1704 14.2451 26.6948L19.3926 21.5476Z" fill="#FF1616"/>
<path d="M27.1475 13.7935C25.6231 12.7774 23.8322 12.2352 22.0002 12.2352C20.1683 12.2352 18.3774 12.7774 16.853 13.7935L22 18.9405L27.1475 13.7935Z" fill="#FF1616"/>
<path d="M61.4238 24.8265C62.0723 24.8265 62.7061 24.6342 63.2452 24.2739C63.7844 23.9136 64.2046 23.4015 64.4527 22.8025C64.7008 22.2034 64.7657 21.5442 64.6391 20.9082C64.5126 20.2722 64.2003 19.6881 63.7418 19.2296C63.2833 18.7711 62.6991 18.4589 62.0631 18.3324C61.4271 18.2059 60.7679 18.2709 60.1688 18.519C59.5698 18.7672 59.0577 19.1874 58.6975 19.7266C58.3373 20.2657 58.145 20.8996 58.145 21.548C58.145 21.9786 58.2298 22.405 58.3946 22.8028C58.5594 23.2006 58.8009 23.562 59.1054 23.8664C59.4098 24.1709 59.7713 24.4124 60.1691 24.5771C60.5669 24.7418 60.9933 24.8266 61.4238 24.8265Z" fill="#FF1616"/>
<path d="M68 18.2505C68.6484 18.2505 69.2823 18.0581 69.8214 17.6978C70.3605 17.3376 70.7807 16.8255 71.0288 16.2264C71.2769 15.6273 71.3418 14.9681 71.2153 14.3322C71.0888 13.6962 70.7765 13.112 70.318 12.6535C69.8594 12.1951 69.2753 11.8828 68.6393 11.7563C68.0033 11.6299 67.3441 11.6948 66.745 11.943C66.146 12.1911 65.6339 12.6113 65.2737 13.1505C64.9135 13.6896 64.7212 14.3235 64.7212 14.9719C64.7212 15.4025 64.806 15.8289 64.9707 16.2267C65.1355 16.6245 65.377 16.9859 65.6815 17.2904C65.986 17.5948 66.3474 17.8363 66.7453 18.001C67.1431 18.1658 67.5694 18.2506 68 18.2505Z" fill="#FF1616"/>
<path d="M74.5762 24.8265C75.2246 24.8265 75.8585 24.6342 76.3976 24.2739C76.9367 23.9136 77.3569 23.4015 77.605 22.8025C77.8531 22.2034 77.918 21.5442 77.7915 20.9082C77.6649 20.2722 77.3527 19.6881 76.8941 19.2296C76.4356 18.7711 75.8514 18.4589 75.2154 18.3324C74.5794 18.2059 73.9202 18.2709 73.3212 18.519C72.7221 18.7672 72.2101 19.1874 71.8498 19.7266C71.4896 20.2657 71.2973 20.8996 71.2974 21.548C71.2974 21.9786 71.3822 22.405 71.5469 22.8028C71.7117 23.2006 71.9532 23.562 72.2577 23.8664C72.5622 24.1709 72.9236 24.4124 73.3214 24.5771C73.7192 24.7418 74.1456 24.8266 74.5762 24.8265Z" fill="#FF1616"/>
<path d="M8.38388 57.5836C17.9522 61.4844 21.5313 51.7858 26.3419 43.9176C27.746 41.63 29.7139 39.7412 32.0572 38.4321C34.4004 37.123 37.0405 36.4375 39.7247 36.4411H50.2755C52.9596 36.4375 55.5997 37.1231 57.943 38.4322C60.2862 39.7413 62.2541 41.6301 63.6583 43.9176C68.4688 51.7858 72.0474 61.4844 81.6158 57.5836C89.8751 54.2167 92.0313 38.657 88.0885 23.8359C83.8365 7.85108 75.8824 -2.41333 64.42 0.490848C61.8043 1.15357 58.9898 3.39594 56.5103 6.47205C56.1718 6.89652 55.7424 7.23969 55.2537 7.4763C54.7651 7.71292 54.2295 7.83696 53.6866 7.8393H36.3136C35.7706 7.83701 35.235 7.713 34.7463 7.4764C34.2575 7.23979 33.828 6.89661 33.4894 6.47211C31.0099 3.39594 28.1959 1.15357 25.5802 0.490848C14.1173 -2.41333 6.16366 7.85108 1.91122 23.8359C-2.0311 38.657 0.125087 54.2167 8.38388 57.5836ZM68.0001 8.5481C70.5712 8.5481 73.0847 9.31053 75.2225 10.739C77.3603 12.1675 79.0266 14.1978 80.0105 16.5732C80.9945 18.9486 81.2519 21.5625 80.7503 24.0843C80.2487 26.606 79.0106 28.9224 77.1925 30.7405C75.3744 32.5586 73.058 33.7967 70.5363 34.2983C68.0145 34.7999 65.4006 34.5425 63.0252 33.5585C60.6498 32.5746 58.6194 30.9083 57.191 28.7705C55.7625 26.6327 55.0001 24.1193 55.0001 21.5481C55.0041 18.1015 56.375 14.7972 58.8121 12.3601C61.2492 9.92301 64.5535 8.55209 68.0001 8.5481ZM22.0001 8.5481C24.5712 8.5481 27.0847 9.31053 29.2225 10.739C31.3603 12.1675 33.0266 14.1978 34.0105 16.5732C34.9945 18.9486 35.2519 21.5625 34.7503 24.0843C34.2487 26.606 33.0106 28.9224 31.1925 30.7405C29.3744 32.5586 27.058 33.7967 24.5363 34.2983C22.0145 34.7999 19.4006 34.5425 17.0252 33.5585C14.6498 32.5746 12.6194 30.9083 11.191 28.7705C9.76252 26.6327 9.00009 24.1193 9.00009 21.5481C9.00408 18.1015 10.375 14.7972 12.8121 12.3601C15.2492 9.92301 18.5535 8.55209 22.0001 8.5481Z" fill="#FF1616"/>
<path d="M68 31.4028C68.6484 31.4027 69.2823 31.2104 69.8214 30.8501C70.3605 30.4898 70.7807 29.9778 71.0288 29.3787C71.2769 28.7796 71.3418 28.1204 71.2152 27.4845C71.0887 26.8485 70.7764 26.2644 70.3179 25.8059C69.8594 25.3474 69.2752 25.0352 68.6392 24.9087C68.0033 24.7822 67.3441 24.8471 66.745 25.0953C66.146 25.3434 65.634 25.7636 65.2737 26.3028C64.9135 26.8419 64.7212 27.4758 64.7212 28.1242C64.7212 28.5548 64.806 28.9811 64.9707 29.3789C65.1355 29.7767 65.377 30.1382 65.6815 30.4426C65.986 30.7471 66.3474 30.9886 66.7453 31.1533C67.1431 31.318 67.5694 31.4028 68 31.4028Z" fill="#FF1616"/>
</svg>
