<svg width="68" height="77" viewBox="0 0 68 77" fill="none" xmlns="http://www.w3.org/2000/svg">
<path d="M35.2903 57.2019V53.7422C35.2869 53.2552 35.5491 52.8024 35.9714 52.5572C37.2347 51.8353 38.0145 50.4868 38.0145 49.0294C38.0145 47.5719 37.2382 46.2234 35.9749 45.4948C34.715 44.7627 33.1588 44.7627 31.8954 45.488C30.6321 46.2167 29.8523 47.5617 29.8489 49.0191C29.8455 50.48 30.6219 51.8285 31.8852 52.5571C32.3074 52.8023 32.5662 53.2552 32.5662 53.7422V57.2019L35.2903 57.2019Z" fill="#97173A"/>
<path d="M62.5282 60.403C61.6565 60.0863 60.7337 59.9263 59.8041 59.9263H8.04869C-2.59598 60.0557 -2.76946 76.0637 8.04869 76.2712H59.8041C68.9808 76.152 71.0651 63.4846 62.5282 60.403ZM9.41033 70.033C7.83032 72.0693 5.42967 69.6788 7.47614 68.0988C5.42958 66.5222 7.83028 64.1181 9.41033 66.1646C10.9869 64.118 13.391 66.5187 11.3445 68.0988L11.7395 68.4938C13.088 70.1692 10.7145 71.8343 9.41033 70.033ZM21.6686 70.033C20.0886 72.0693 17.6879 69.6788 19.7344 68.0988C17.6878 66.5222 20.0885 64.1181 21.6686 66.1646C23.2452 64.118 25.6492 66.5187 23.6028 68.0988L23.9978 68.4938C25.3462 70.1692 22.9728 71.8343 21.6686 70.033ZM33.9268 70.033C32.3468 72.0693 29.9462 69.6788 31.9926 68.0988C29.9461 66.5222 32.3468 64.1181 33.9268 66.1646C35.5034 64.118 37.9075 66.5187 35.861 68.0988L36.256 68.4938C37.6011 70.1692 35.231 71.8343 33.9268 70.033ZM47.5476 69.4609H44.82C44.0777 69.4507 43.4783 68.8446 43.4783 68.0988C43.4783 67.3565 44.0777 66.747 44.82 66.7368H47.5442C48.2899 66.747 48.8858 67.3565 48.8858 68.0988C48.8858 68.8446 48.2899 69.4507 47.5442 69.4609H47.5476ZM59.8058 69.4609H57.0783C56.3359 69.4507 55.7366 68.8446 55.7366 68.0988C55.7366 67.3565 56.3359 66.747 57.0783 66.7368H59.8024C60.5482 66.747 61.1441 67.3565 61.1441 68.0988C61.1441 68.8446 60.5482 69.4507 59.8024 69.4609H59.8058Z" fill="#97173A"/>
<path d="M29.842 57.2019V54.4778C27.4958 52.7207 26.5389 49.6595 27.4651 46.8774C28.3947 44.0953 30.9963 42.2225 33.9282 42.2225C36.8567 42.2225 39.4617 44.0953 40.3879 46.8774C41.3141 49.6594 40.3572 52.7206 38.0144 54.4778V57.2019C39.5298 57.362 61.783 56.8444 62.5318 57.5561V35.4089L62.5284 35.4123C62.5216 33.1581 60.6964 31.3329 58.4422 31.3261H57.0801V23.1537C57.0801 14.8824 52.667 7.23765 45.5027 3.10043C38.3416 -1.03348 29.5152 -1.03348 22.3504 3.10043C15.1859 7.23774 10.773 14.8827 10.773 23.1537V31.3261H9.41093C7.15673 31.3329 5.33151 33.1581 5.32471 35.4123V57.556C6.07044 56.8988 28.3234 57.3041 29.842 57.2019ZM16.2212 23.1531C17.1917 -0.339106 50.6684 -0.329517 51.6317 23.1531V31.3256H16.2212V23.1531Z" fill="#97173A"/>
</svg>
