<svg width="77" height="77" viewBox="0 0 77 77" fill="none" xmlns="http://www.w3.org/2000/svg">
<path fill-rule="evenodd" clip-rule="evenodd" d="M24.4593 23.4563C24.4593 27.3303 26.0233 30.8474 28.566 33.3901C31.1086 35.9327 34.6217 37.4967 38.4998 37.4967C42.3738 37.4967 45.891 35.9327 48.4336 33.3901C50.9763 30.8474 52.5403 27.3344 52.5403 23.4563C52.5403 19.5822 50.9763 16.0651 48.4336 13.5224C45.891 10.9798 42.3779 9.41577 38.4998 9.41577C34.6258 9.41577 31.1086 10.9798 28.566 13.5224C26.0233 16.0651 24.4593 19.5781 24.4593 23.4563ZM66.7569 61.6236C65.1929 55.2831 61.5715 49.7646 56.6186 45.815C51.6376 41.8607 45.3489 39.5026 38.5 39.5026C31.6462 39.5026 25.3576 41.8648 20.3814 45.815C15.4285 49.7693 11.8071 55.2876 10.2431 61.6236C11.0131 62.5741 11.8352 63.4724 12.6814 64.3186C19.3026 70.9158 28.414 75.0226 38.5 75.0226C48.586 75.0226 57.6976 70.916 64.3186 64.3186C65.1648 63.4724 65.9869 62.5741 66.7569 61.6236ZM38.5 0C49.1281 0 58.7531 4.31118 65.7303 11.2697C72.6843 18.2519 77 27.8771 77 38.5C77 49.1281 72.6888 58.7531 65.7303 65.7303C58.7481 72.6843 49.1229 77 38.5 77C27.8719 77 18.2469 72.6888 11.2697 65.7303C4.3157 58.7481 0 49.1229 0 38.5C0 27.8719 4.31118 18.2469 11.2697 11.2697C18.2519 4.3157 27.8771 0 38.5 0Z" fill="#FF1616"/>
</svg>
