<svg width="90" height="75" viewBox="0 0 90 75" fill="none" xmlns="http://www.w3.org/2000/svg">
<path fill-rule="evenodd" clip-rule="evenodd" d="M59.5035 48.4794C59.3345 48.4839 59.1664 48.4545 59.009 48.393C58.8516 48.3314 58.7081 48.239 58.587 48.1211C58.4659 48.0032 58.3697 47.8622 58.3039 47.7065C58.2382 47.5508 58.2044 47.3835 58.2044 47.2145C58.2044 47.0454 58.2382 46.8781 58.3039 46.7224C58.3697 46.5667 58.4659 46.4257 58.587 46.3078C58.7081 46.1899 58.8516 46.0975 59.009 46.0359C59.1664 45.9744 59.3345 45.945 59.5035 45.9495H67.9428C68.1117 45.945 68.2799 45.9744 68.4373 46.0359C68.5947 46.0975 68.7382 46.1899 68.8593 46.3078C68.9804 46.4257 69.0766 46.5667 69.1424 46.7224C69.2081 46.8781 69.2419 47.0454 69.2419 47.2145C69.2419 47.3835 69.2081 47.5508 69.1424 47.7065C69.0766 47.8622 68.9804 48.0032 68.8593 48.1211C68.7382 48.239 68.5947 48.3314 68.4373 48.393C68.2799 48.4545 68.1117 48.4839 67.9428 48.4794H59.5035ZM54.5778 54.7515C54.4088 54.756 54.2407 54.7266 54.0833 54.6651C53.9259 54.6035 53.7824 54.5111 53.6613 54.3932C53.5402 54.2753 53.4439 54.1343 53.3782 53.9786C53.3125 53.8229 53.2787 53.6556 53.2787 53.4866C53.2787 53.3175 53.3125 53.1502 53.3782 52.9945C53.4439 52.8388 53.5402 52.6978 53.6613 52.5799C53.7824 52.462 53.9259 52.3696 54.0833 52.308C54.2407 52.2465 54.4088 52.2171 54.5778 52.2216H72.8685C73.0374 52.2171 73.2056 52.2465 73.363 52.308C73.5204 52.3696 73.6639 52.462 73.785 52.5799C73.9061 52.6978 74.0023 52.8388 74.0681 52.9945C74.1338 53.1502 74.1676 53.3175 74.1676 53.4866C74.1676 53.6556 74.1338 53.8229 74.0681 53.9786C74.0023 54.1343 73.9061 54.2753 73.785 54.3932C73.6639 54.5111 73.5204 54.6035 73.363 54.6651C73.2056 54.7266 73.0374 54.756 72.8685 54.7515H54.5778ZM17.1315 42.2073C16.9625 42.2118 16.7944 42.1824 16.637 42.1209C16.4796 42.0593 16.3361 41.9669 16.215 41.849C16.0939 41.7311 15.9977 41.5901 15.9319 41.4344C15.8662 41.2787 15.8324 41.1114 15.8324 40.9424C15.8324 40.7733 15.8662 40.606 15.9319 40.4503C15.9977 40.2946 16.0939 40.1536 16.215 40.0357C16.3361 39.9178 16.4796 39.8254 16.637 39.7638C16.7944 39.7023 16.9625 39.6729 17.1315 39.6774H35.4222C35.5912 39.6729 35.7593 39.7023 35.9167 39.7638C36.0741 39.8254 36.2176 39.9178 36.3387 40.0357C36.4598 40.1536 36.556 40.2946 36.6218 40.4503C36.6875 40.606 36.7213 40.7733 36.7213 40.9424C36.7213 41.1114 36.6875 41.2787 36.6218 41.4344C36.556 41.5901 36.4598 41.7311 36.3387 41.849C36.2176 41.9669 36.0741 42.0593 35.9167 42.1209C35.7593 42.1824 35.5912 42.2118 35.4222 42.2073H17.1315ZM22.0572 48.4794C21.8882 48.4839 21.7201 48.4545 21.5627 48.393C21.4053 48.3314 21.2618 48.239 21.1407 48.1211C21.0196 48.0032 20.9234 47.8622 20.8576 47.7065C20.7919 47.5508 20.7581 47.3835 20.7581 47.2145C20.7581 47.0454 20.7919 46.8781 20.8576 46.7224C20.9234 46.5667 21.0196 46.4257 21.1407 46.3078C21.2618 46.1899 21.4053 46.0975 21.5627 46.0359C21.7201 45.9744 21.8882 45.945 22.0572 45.9495H30.4965C30.6655 45.945 30.8336 45.9744 30.991 46.0359C31.1484 46.0975 31.2919 46.1899 31.413 46.3078C31.5341 46.4257 31.6303 46.5667 31.6961 46.7224C31.7618 46.8781 31.7956 47.0454 31.7956 47.2145C31.7956 47.3835 31.7618 47.5508 31.6961 47.7065C31.6303 47.8622 31.5341 48.0032 31.413 48.1211C31.2919 48.239 31.1484 48.3314 30.991 48.393C30.8336 48.4545 30.6655 48.4839 30.4965 48.4794H22.0572ZM17.1315 54.7515C16.9625 54.756 16.7944 54.7266 16.637 54.6651C16.4796 54.6035 16.3361 54.5111 16.215 54.3932C16.0939 54.2753 15.9977 54.1343 15.9319 53.9786C15.8662 53.8229 15.8324 53.6556 15.8324 53.4866C15.8324 53.3175 15.8662 53.1502 15.9319 52.9945C15.9977 52.8388 16.0939 52.6978 16.215 52.5799C16.3361 52.462 16.4796 52.3696 16.637 52.308C16.7944 52.2465 16.9625 52.2171 17.1315 52.2216H35.4222C35.5912 52.2171 35.7593 52.2465 35.9167 52.308C36.0741 52.3696 36.2176 52.462 36.3387 52.5799C36.4598 52.6978 36.556 52.8388 36.6218 52.9945C36.6875 53.1502 36.7213 53.3175 36.7213 53.4866C36.7213 53.6556 36.6875 53.8229 36.6218 53.9786C36.556 54.1343 36.4598 54.2753 36.3387 54.3932C36.2176 54.5111 36.0741 54.6035 35.9167 54.6651C35.7593 54.7266 35.5912 54.756 35.4222 54.7515H17.1315ZM31.3992 22.5441C31.5166 22.6616 31.6098 22.801 31.6733 22.9545C31.7368 23.108 31.7695 23.2725 31.7694 23.4386C31.7694 23.6047 31.7366 23.7691 31.673 23.9226C31.6094 24.076 31.5162 24.2154 31.3987 24.3329C31.2813 24.4503 31.1418 24.5434 30.9883 24.6069C30.8349 24.6705 30.6704 24.7031 30.5043 24.7031C30.3382 24.703 30.1737 24.6703 30.0203 24.6067C29.8668 24.5431 29.7274 24.4499 29.61 24.3324L26.28 21.0024L22.95 24.3324C22.8326 24.4499 22.6932 24.5431 22.5397 24.6067C22.3863 24.6703 22.2218 24.703 22.0557 24.7031C21.8896 24.7031 21.7251 24.6705 21.5717 24.6069C21.4182 24.5434 21.2787 24.4503 21.1613 24.3329C21.0438 24.2154 20.9506 24.076 20.887 23.9226C20.8234 23.7691 20.7906 23.6047 20.7906 23.4386C20.7905 23.2725 20.8232 23.108 20.8867 22.9545C20.9502 22.801 21.0434 22.6616 21.1608 22.5441L24.4908 19.2141L21.1608 15.8841C20.9237 15.6468 20.7905 15.3251 20.7906 14.9896C20.7906 14.6542 20.924 14.3325 21.1613 14.0954C21.3985 13.8582 21.7203 13.725 22.0557 13.7251C22.3912 13.7252 22.7129 13.8585 22.95 14.0958L26.28 17.4258L29.61 14.0958C29.8471 13.8585 30.1688 13.7252 30.5043 13.7251C30.8397 13.725 31.1615 13.8582 31.3987 14.0954C31.636 14.3325 31.7694 14.6542 31.7694 14.9896C31.7695 15.3251 31.6363 15.6468 31.3992 15.8841L28.0692 19.2141L31.3992 22.5441ZM71.3376 11.5956C69.8316 10.0896 67.9128 9.06398 65.824 8.64847C63.7351 8.23296 61.5699 8.44621 59.6022 9.26125C57.6345 10.0763 55.9527 11.4565 54.7694 13.2274C53.5862 14.9983 52.9546 17.0802 52.9546 19.2101C52.9546 21.3399 53.5862 23.4218 54.7694 25.1927C55.9527 26.9636 57.6345 28.3438 59.6022 29.1589C61.5699 29.9739 63.7351 30.1871 65.824 29.7716C67.9128 29.3561 69.8316 28.3305 71.3376 26.8245C73.3568 24.8049 74.4912 22.0659 74.4912 19.2101C74.4912 16.3542 73.3568 13.6152 71.3376 11.5956ZM63.72 5.9121C66.3503 5.91139 68.9218 6.69072 71.1092 8.15153C73.2966 9.61235 75.0016 11.689 76.0087 14.1189C77.0158 16.5488 77.2796 19.2228 76.7669 21.8027C76.2542 24.3826 74.9879 26.7524 73.1283 28.6126C71.2686 30.4728 68.899 31.7397 66.3193 32.2531C63.7396 32.7665 61.0655 32.5034 58.6354 31.497C56.2052 30.4905 54.128 28.7861 52.6666 26.5991C51.2052 24.4121 50.4252 21.8408 50.4252 19.2105C50.4252 15.6842 51.8258 12.3022 54.3189 9.80838C56.8121 7.31455 60.1937 5.91305 63.72 5.9121ZM57.3165 21.7638C57.1991 21.6463 57.1059 21.5069 57.0424 21.3534C56.9789 21.1999 56.9462 21.0354 56.9463 20.8693C56.9463 20.7032 56.9791 20.5388 57.0427 20.3853C57.1063 20.2319 57.1995 20.0925 57.3169 19.9751C57.4344 19.8576 57.5739 19.7645 57.7274 19.701C57.8808 19.6374 58.0453 19.6048 58.2114 19.6048C58.5469 19.6049 58.8686 19.7382 59.1057 19.9755L60.7797 21.6495L68.3397 14.0895C68.5768 13.8522 68.8985 13.7189 69.234 13.7188C69.5694 13.7187 69.8912 13.8519 70.1284 14.0891C70.3657 14.3262 70.4991 14.6479 70.4991 14.9833C70.4992 15.3188 70.366 15.6405 70.1289 15.8778L61.6734 24.3378C61.4361 24.575 61.1143 24.7083 60.7788 24.7083C60.4433 24.7083 60.1215 24.575 59.8842 24.3378L57.3156 21.7692L57.3165 21.7638ZM81.18 63.9657V2.799C81.1776 2.05739 80.882 1.34683 80.3576 0.82243C79.8332 0.298029 79.1226 0.00237317 78.381 0H49.0653C48.3235 0.00213592 47.6127 0.297687 47.0881 0.822113C46.5636 1.34654 46.2678 2.05723 46.2654 2.799V63.9657C46.2673 64.7078 46.5629 65.4189 47.0875 65.9438C47.6122 66.4686 48.3232 66.7644 49.0653 66.7665H78.381C79.1229 66.7641 79.8338 66.4682 80.3582 65.9434C80.8827 65.4186 81.1781 64.7076 81.18 63.9657ZM83.7108 8.1315V63.9657C83.7084 65.3788 83.146 66.7333 82.1468 67.7324C81.1477 68.7316 79.7932 69.294 78.3801 69.2964H49.0653C48.0758 69.2973 47.1059 69.021 46.2654 68.499V74.898H87.1992C87.941 74.8959 88.6519 74.6003 89.1767 74.0759C89.7014 73.5515 89.9974 72.8409 90 72.099V10.9323C89.9979 10.1901 89.7021 9.47899 89.1773 8.9542C88.6525 8.42941 87.9414 8.13364 87.1992 8.1315H83.7108ZM40.9347 0H11.619C10.8774 0.00237317 10.1668 0.298029 9.64243 0.82243C9.11803 1.34683 8.82237 2.05739 8.82 2.799V63.9657C8.8219 64.7078 9.11747 65.4189 9.64212 65.9438C10.1668 66.4686 10.8778 66.7644 11.6199 66.7665H40.9347C41.6768 66.7644 42.3878 66.4686 42.9125 65.9438C43.4371 65.4189 43.7327 64.7078 43.7346 63.9657V2.799C43.7322 2.05723 43.4364 1.34654 42.9119 0.822113C42.3873 0.297687 41.6765 0.00213592 40.9347 0ZM43.7346 68.499C42.8941 69.021 41.9241 69.2973 40.9347 69.2964H11.619C10.2059 69.2943 8.85123 68.7319 7.85199 67.7327C6.85276 66.7335 6.29044 65.3788 6.2883 63.9657V8.1315H2.8008C2.05864 8.13364 1.34749 8.42941 0.822696 8.9542C0.297907 9.47899 0.0021371 10.1901 0 10.9323L0 72.099C0.0026116 72.8409 0.298591 73.5515 0.823329 74.0759C1.34807 74.6003 2.05895 74.8959 2.8008 74.898H43.7346V68.499ZM33.8913 11.5956C32.3853 10.0896 30.4665 9.06398 28.3777 8.64847C26.2888 8.23296 24.1236 8.44621 22.1559 9.26125C20.1882 10.0763 18.5064 11.4565 17.3231 13.2274C16.1399 14.9983 15.5083 17.0802 15.5083 19.2101C15.5083 21.3399 16.1399 23.4218 17.3231 25.1927C18.5064 26.9636 20.1882 28.3438 22.1559 29.1589C24.1236 29.9739 26.2888 30.1871 28.3777 29.7716C30.4665 29.3561 32.3853 28.3305 33.8913 26.8245C35.9105 24.8049 37.0449 22.0659 37.0449 19.2101C37.0449 16.3542 35.9105 13.6152 33.8913 11.5956ZM26.28 5.9121C23.6497 5.91139 21.0782 6.69072 18.8908 8.15153C16.7034 9.61235 14.9984 11.689 13.9913 14.1189C12.9842 16.5488 12.7204 19.2228 13.2331 21.8027C13.7458 24.3826 15.0121 26.7524 16.8717 28.6126C18.7314 30.4728 21.101 31.7397 23.6807 32.2531C26.2604 32.7665 28.9345 32.5034 31.3646 31.497C33.7948 30.4905 35.872 28.7861 37.3334 26.5991C38.7948 24.4121 39.5748 21.8408 39.5748 19.2105C39.5748 15.6842 38.1742 12.3022 35.6811 9.80838C33.1879 7.31455 29.8063 5.91305 26.28 5.9121ZM54.5778 42.2073C54.4088 42.2118 54.2407 42.1824 54.0833 42.1209C53.9259 42.0593 53.7824 41.9669 53.6613 41.849C53.5402 41.7311 53.4439 41.5901 53.3782 41.4344C53.3125 41.2787 53.2787 41.1114 53.2787 40.9424C53.2787 40.7733 53.3125 40.606 53.3782 40.4503C53.4439 40.2946 53.5402 40.1536 53.6613 40.0357C53.7824 39.9178 53.9259 39.8254 54.0833 39.7638C54.2407 39.7023 54.4088 39.6729 54.5778 39.6774H72.8685C73.0374 39.6729 73.2056 39.7023 73.363 39.7638C73.5204 39.8254 73.6639 39.9178 73.785 40.0357C73.9061 40.1536 74.0023 40.2946 74.0681 40.4503C74.1338 40.606 74.1676 40.7733 74.1676 40.9424C74.1676 41.1114 74.1338 41.2787 74.0681 41.4344C74.0023 41.5901 73.9061 41.7311 73.785 41.849C73.6639 41.9669 73.5204 42.0593 73.363 42.1209C73.2056 42.1824 73.0374 42.2118 72.8685 42.2073H54.5778Z" fill="#97173A"/>
</svg>
