<svg width="73" height="75" viewBox="0 0 73 75" fill="none" xmlns="http://www.w3.org/2000/svg">
<path d="M26.7026 15.3532H45.9575C47.7726 15.3439 49.2416 13.875 49.2416 12.0599V9.87052C49.2416 8.05542 47.7726 6.57715 45.9575 6.57715H26.7026C24.8875 6.57715 23.4185 8.05542 23.4092 9.87052V12.0599C23.4185 13.875 24.8875 15.3439 26.7026 15.3532ZM25.6079 9.87052C25.6079 9.26237 26.0944 8.77585 26.7026 8.77585H45.9575C46.5563 8.77585 47.0522 9.26237 47.0522 9.87052V12.0599C47.0522 12.668 46.5563 13.1545 45.9575 13.1545H26.7026C26.0944 13.1545 25.6079 12.668 25.6079 12.0599V9.87052Z" fill="#FF1616"/>
<path d="M67.2615 0H12.2846C9.25325 0 6.80193 2.45131 6.80193 5.48271V63.5564H1.09467C0.486521 63.5564 0 64.0523 0 64.6605V69.4602C0 72.4354 2.41389 74.8493 5.38915 74.8493H58.3918C58.4386 74.8493 58.4948 74.84 58.5509 74.84C61.4326 74.6435 63.6687 72.2483 63.6687 69.3666V11.2929H71.5653C72.1735 11.2929 72.66 10.797 72.66 10.1889V5.38915C72.66 2.41389 70.2461 0 67.2615 0ZM5.38915 72.66C3.63019 72.6506 2.1987 71.2191 2.18934 69.4602V65.7551H52.6284V69.4602C52.6284 70.611 52.9933 71.7337 53.6857 72.66H5.38915ZM61.47 5.59499V69.3666C61.47 71.1817 60.0011 72.6506 58.186 72.66H58.0176C56.2586 72.6506 54.8271 71.2191 54.8178 69.4602V64.6605C54.8178 64.0523 54.3313 63.5564 53.7231 63.5564H8.99128V5.48271C8.99128 3.66762 10.4602 2.1987 12.2846 2.18934H62.6302C61.8817 3.16238 61.47 4.35997 61.47 5.59499ZM70.4613 9.10355H63.6687V5.59499C63.6687 3.7144 65.1844 2.1987 67.065 2.18934H67.2615C69.0298 2.1987 70.4613 3.63019 70.4613 5.38915V9.10355Z" fill="#FF1616"/>
<path d="M8.99109 5.48258V63.5563H53.7229C54.3311 63.5563 54.8176 64.0522 54.8176 64.6603V69.46C54.827 71.219 56.2585 72.6505 58.0174 72.6599H58.1858C60.0009 72.6505 61.4698 71.1816 61.4698 69.3665V5.59485C61.4698 4.35984 61.8815 3.16225 62.63 2.18921H12.2845C10.46 2.19857 8.99109 3.66748 8.99109 5.48258ZM55.9871 54.8457H49.5594C48.9513 54.8457 48.4648 54.3592 48.4648 53.751C48.4648 53.1429 48.9513 52.6564 49.5594 52.6564H55.9871C56.5953 52.6564 57.0912 53.1429 57.0912 53.751C57.0912 54.3592 56.5953 54.8457 55.9871 54.8457ZM55.9871 19.7601C56.5953 19.7601 57.0912 20.256 57.0912 20.8641C57.0912 21.4629 56.5953 21.9588 55.9871 21.9588H49.5594C48.9513 21.9588 48.4648 21.4629 48.4648 20.8641C48.4648 20.256 48.9513 19.7601 49.5594 19.7601H55.9871ZM23.4089 9.87062C23.4183 8.05552 24.8872 6.57725 26.7023 6.57725H45.9573C47.7724 6.57725 49.2413 8.05552 49.2413 9.87062V12.06C49.2413 13.8751 47.7724 15.344 45.9573 15.3533H26.7023C24.8872 15.344 23.4183 13.8751 23.4089 12.06V9.87062ZM14.4738 19.7601H42.8324C43.4405 19.7601 43.927 20.256 43.927 20.8641C43.927 21.4629 43.4405 21.9588 42.8324 21.9588H14.4738C13.8657 21.9588 13.3791 21.4629 13.3791 20.8641C13.3791 20.256 13.8657 19.7601 14.4738 19.7601ZM23.7177 48.2683H14.4738C13.8657 48.2683 13.3791 47.7818 13.3791 47.1737C13.3791 46.5655 13.8657 46.079 14.4738 46.079H22.4453C22.1084 45.3679 21.8278 44.6381 21.6032 43.8803H14.4738C13.8657 43.8803 13.3791 43.3938 13.3791 42.7856C13.3791 42.1868 13.8657 41.6909 14.4738 41.6909H21.126C20.9202 40.2407 20.9202 38.7625 21.126 37.3029H14.4738C13.8657 37.3029 13.3791 36.8164 13.3791 36.2082C13.3791 35.6001 13.8657 35.1136 14.4738 35.1136H21.6032C21.8278 34.3651 22.1084 33.6259 22.4359 32.9242H14.4738C13.8657 32.9242 13.3791 32.4283 13.3791 31.8202C13.3791 31.2214 13.8657 30.7255 14.4738 30.7255H23.7177C24.9621 28.9572 26.5526 27.4602 28.4051 26.3375H14.4738C13.8657 26.3375 13.3791 25.851 13.3791 25.2428C13.3791 24.644 13.8657 24.1481 14.4738 24.1481H36.3298C41.3541 24.1575 46.0602 26.6088 48.9326 30.7255H55.9871C56.5953 30.7255 57.0912 31.2214 57.0912 31.8202C57.0912 32.4283 56.5953 32.9242 55.9871 32.9242H50.2144C51.1874 34.9732 51.6926 37.2281 51.6833 39.5016C51.6833 40.2314 51.6365 40.9612 51.5336 41.6909H55.9871C56.5953 41.6909 57.0912 42.1868 57.0912 42.7856C57.0912 43.3938 56.5953 43.8803 55.9871 43.8803H51.0564C49.101 50.3922 43.1224 54.8457 36.3298 54.8457H14.4738C13.8657 54.8457 13.3791 54.3592 13.3791 53.751C13.3791 53.1429 13.8657 52.6564 14.4738 52.6564H28.4051C26.562 51.5336 24.9621 50.046 23.7177 48.2683ZM14.4738 57.0444H34.0656C34.6644 57.0444 35.1603 57.5309 35.1603 58.1391C35.1603 58.7472 34.6644 59.2338 34.0656 59.2338H14.4738C13.8657 59.2338 13.3791 58.7472 13.3791 58.1391C13.3791 57.5309 13.8657 57.0444 14.4738 57.0444Z" fill="#FF1616"/>
<path d="M45.6396 48.8016C50.7855 43.6557 50.7761 35.3194 45.6396 30.1735C40.4937 25.037 32.1573 25.037 27.0208 30.1829C21.8749 35.3194 21.8749 43.6557 27.0208 48.8016C29.4815 51.281 32.831 52.6657 36.3302 52.6564C39.82 52.6564 43.1695 51.2717 45.6396 48.8016ZM31.1188 40.6805L31.0907 40.6337C31.0814 40.6243 31.0627 40.6056 31.0533 40.5963L31.0252 40.5495C31.0159 40.5308 31.0065 40.5214 30.9972 40.5027L30.9785 40.4559L30.9504 40.4091C30.9504 40.3904 30.9317 40.3717 30.9317 40.353C30.9317 40.3437 30.9223 40.3249 30.913 40.3062C30.913 40.2969 30.9036 40.2782 30.9036 40.2501L30.8849 40.2033L30.8755 40.1565V39.9788C30.8755 39.96 30.8755 39.96 30.8755 39.9413V39.7729C30.8849 39.7636 30.8943 39.7449 30.8943 39.7261C30.8943 39.7074 30.9036 39.6887 30.9036 39.67C30.913 39.6513 30.9223 39.6419 30.9223 39.6232L30.941 39.5671L30.9597 39.5203C30.9691 39.5016 30.9785 39.4922 30.9878 39.4735C30.9878 39.4548 30.9972 39.4455 31.0065 39.4267L31.0346 39.38L31.072 39.3332L31.1001 39.2958L31.1375 39.249L31.1562 39.2209C31.1656 39.2209 31.1656 39.2209 31.1749 39.2116L31.2124 39.1741C31.2311 39.1554 31.2404 39.1461 31.2498 39.1367L31.2966 39.1086L31.334 39.0712C31.3527 39.0619 31.3621 39.0525 31.3808 39.0431L31.4276 39.0151L31.4743 38.9964L31.5211 38.9683L31.5679 38.9496L31.624 38.9309L31.6708 38.9215L31.727 38.9028L31.7737 38.8934L31.8299 38.8841H35.011C35.9934 38.8934 36.9009 38.3508 37.35 37.4807H31.9609C31.3527 37.4807 30.8662 36.9848 30.8662 36.386C30.8662 35.7778 31.3527 35.2913 31.9609 35.2913H37.35C36.9009 34.4118 35.9934 33.8692 35.011 33.8785H31.9609C31.3527 33.8785 30.8662 33.392 30.8662 32.7839C30.8662 32.1757 31.3527 31.6892 31.9609 31.6892H40.6902C41.2983 31.6892 41.7848 32.1757 41.7848 32.7839C41.7848 33.392 41.2983 33.8785 40.6902 33.8785H39.0622C39.3429 34.3089 39.5487 34.7861 39.6703 35.2913H40.6902C41.2983 35.2913 41.7848 35.7778 41.7848 36.386C41.7848 36.9848 41.2983 37.4807 40.6902 37.4807H39.6703C39.1277 39.6045 37.2097 41.0921 35.011 41.0828H34.7209L39.3148 45.4053C39.5487 45.6205 39.6703 45.9106 39.6703 46.2193C39.661 46.8275 39.1745 47.314 38.5663 47.314C38.2856 47.3046 38.0143 47.2017 37.8085 47.0052L31.203 40.774V40.7647L31.1188 40.6805Z" fill="#FF1616"/>
</svg>
