<svg width="120" height="143" viewBox="0 0 120 143" fill="none" xmlns="http://www.w3.org/2000/svg">
<path fill-rule="evenodd" clip-rule="evenodd" d="M42.7897 25.0632V29.125H77.3527V25.0632C77.1678 2.53863 42.7897 2.53863 42.7897 25.0632ZM37.06 61.6195C37.06 56.2653 45.1925 56.2653 45.1925 61.6195V92.4523C45.1925 97.8065 37.06 97.8065 37.06 92.4523V61.6195ZM55.9125 61.6195C55.9125 56.2653 64.045 56.2653 64.045 61.6195V92.4523C64.045 97.8065 55.9125 97.8065 55.9125 92.4523V61.6195ZM74.7651 61.6195C74.7651 56.2653 82.8975 56.2653 82.8975 61.6195V92.4523C82.8975 97.8065 74.7651 97.8065 74.7651 92.4523V61.6195ZM30.4062 110.915C39.0931 110.915 46.3015 117.931 46.3015 126.793C46.3015 135.471 39.278 142.671 30.4062 142.671C21.7193 142.671 14.5109 135.655 14.5109 126.793C14.6958 117.931 21.7193 110.915 30.4062 110.915ZM89.5513 110.915C98.2383 110.915 105.447 117.931 105.447 126.793C105.447 135.471 98.4231 142.671 89.5513 142.671C80.8644 142.671 73.6561 135.655 73.6561 126.793C73.6561 117.931 80.6796 110.915 89.5513 110.915ZM42.7897 37.4333V48.1417C42.7897 52.5727 34.6573 52.5727 34.6573 48.1417V37.4333H24.8613C22.6434 37.4333 21.3496 39.8334 21.1648 41.8643L8.22677 119.777C8.22677 120.146 8.22677 120.516 8.4116 120.885C7.85712 122.731 7.67229 124.762 7.67229 126.608C7.67229 127.901 7.85712 129.009 8.04194 130.301C3.05157 128.639 -0.644996 124.024 0.0943183 118.485L12.8475 40.5719C13.7716 34.4792 18.2075 29.3096 24.6765 29.3096H34.4724V25.0632C34.4724 -8.3544 85.4851 -8.3544 85.4851 25.0632V29.125H95.281C101.75 29.125 106.186 34.2946 107.11 40.3873L119.863 118.3C120.787 123.839 116.906 128.455 111.916 130.116C112.1 129.009 112.285 127.716 112.285 126.424C112.285 124.393 112.1 122.547 111.546 120.7C111.731 120.331 111.731 119.962 111.731 119.593L98.9776 41.6797C98.6079 39.6488 97.499 37.2486 95.281 37.2486H85.4851V47.957C85.4851 52.3881 77.3527 52.3881 77.3527 47.957V37.2486H42.7897V37.4333ZM52.9553 122.731C53.1401 124.024 53.3249 125.316 53.3249 126.608C53.3249 128.085 53.1401 129.562 52.9553 130.855H67.1871C67.0023 129.378 66.8174 128.085 66.8174 126.608C66.8174 125.316 67.0023 124.024 67.1871 122.731H52.9553Z" fill="black"/>
</svg>
